<svg id="Calque_1" data-name="Calque 1" xmlns="http://www.w3.org/2000/svg" viewBox="0 0 162 216"><defs><style>.cls-1{fill:#0d7a5f}</style></defs><g id="logo"><g id="logo-2" data-name="logo"><path class="cls-1" d="M82 163h-.36a64.6 64.6 0 01-23.87-5 74.69 74.69 0 01-21.45-13.49c-6.44-5.81-13.64-12.4-17.2-19.61a52.07 52.07 0 01-5.56-21.9V91.36c0-6.31 7.28-3 7.19-9.27a1 1 0 00-1-1H8.5a3.11 3.11 0 00-3 3.18v19.74c0 40.21 30.61 73.22 69.66 76.72a7.19 7.19 0 00-.16 1.76v6.92c-.88.62-17.88 12.55-32.33 12.55a.86.86 0 00-.85.86v8.15a.85.85 0 00.85.85h78.74a.85.85 0 00.85-.85v-8.15a.86.86 0 00-.85-.86c-15.71 0-32.29-12.58-32.29-12.58v-6.89a7.19 7.19 0 00-.16-1.76c39.05-3.5 69.66-36.51 69.66-76.72v-1-18.74a3.11 3.11 0 00-3-3.18h-11.34a1 1 0 00-1 1c-.09 6.31 7.19 3 7.19 9.27v11.67a52.07 52.07 0 01-5.55 21.91c-3.56 7.21-10.76 13.8-17.2 19.61A74.69 74.69 0 01106.24 158a64.6 64.6 0 01-23.87 5H82m36.81 45.35H45.18v-3h73.64zm-21.38-9.86H66.27a96 96 0 009.79-5.75H88a83.7 83.7 0 009.44 5.78zm-17.79-9.17V187h4.7v2.39zM82 181h2.2a5.28 5.28 0 01.15 1.49v2.41h-4.7v-2.41a5.28 5.28 0 01.15-1.49H82M12.07 73.4h18.3a1 1 0 001.06-1c.05-3.64-3.29-4.49-6.13-5.76a.46.46 0 01-.22-.63l1.48-2.87L35 46.74a.46.46 0 01.4-.25h93.5a.45.45 0 01.4.25l8.28 16.41 1.77 3.52a.47.47 0 01-.23.63c-2.39 1-4.66 2.11-4.62 5.11a1 1 0 001.06 1h16.37a1.71 1.71 0 001.52-2.48l-27-53.49a.45.45 0 01.3-.65l4.2-1a.45.45 0 00.35-.44V4.67a.45.45 0 00-.46-.46H33.11a.46.46 0 00-.46.46v10.65a.46.46 0 00.35.44l4.77 1.16a.46.46 0 01.29.67l-27.5 53.32a1.7 1.7 0 001.51 2.49zm29.37-39.11l6.16-11.94 2.51-4.46a.46.46 0 01.4-.23h63.84a.46.46 0 01.41.25l1.74 3.44 6.5 12.94a.46.46 0 01-.4.67H41.84a.46.46 0 01-.4-.67z"/></g></g></svg>