<?xml version="1.0" standalone="no"?>
<!DOCTYPE svg PUBLIC "-//W3C//DTD SVG 20010904//EN"
 "http://www.w3.org/TR/2001/REC-SVG-20010904/DTD/svg10.dtd">
<svg version="1.0" xmlns="http://www.w3.org/2000/svg"
 width="864.000000pt" height="864.000000pt" viewBox="0 0 864.000000 864.000000"
 preserveAspectRatio="xMidYMid meet">
<metadata>
Created by potrace 1.11, written by Peter Selinger 2001-2013
</metadata>
<g transform="translate(0.000000,864.000000) scale(0.100000,-0.100000)"
fill="#000000" stroke="none">
<path d="M2515 8472 c-65 -1 -122 -7 -125 -11 -4 -7 -5 -418 -1 -442 1 -6 20
-12 76 -26 11 -2 25 -5 30 -7 6 -1 26 -6 45 -10 77 -18 76 -15 11 -139 -32
-62 -100 -193 -151 -292 -51 -99 -127 -247 -170 -330 -43 -82 -114 -221 -158
-307 -45 -86 -87 -167 -95 -180 -8 -13 -18 -34 -22 -48 -4 -14 -11 -27 -14
-30 -3 -3 -37 -66 -75 -140 -38 -74 -102 -198 -142 -275 -40 -77 -109 -212
-154 -301 l-82 -161 16 -31 c9 -18 24 -33 34 -33 9 -1 186 -3 392 -4 423 -2
412 -4 404 68 -5 39 -50 116 -67 117 -5 0 -21 8 -35 18 -15 10 -52 29 -82 42
-30 13 -58 27 -63 30 -9 7 15 59 114 250 39 74 105 203 147 285 42 83 80 152
84 153 4 2 8 12 8 21 0 10 9 30 20 44 11 14 20 30 20 36 0 8 210 11 733 11
2367 1 3030 0 3033 -3 5 -5 176 -343 296 -582 49 -99 96 -192 104 -206 16 -31
13 -34 -56 -67 -80 -38 -120 -85 -127 -150 -7 -70 -22 -67 359 -68 374 -1 391
1 401 55 4 19 -58 150 -253 536 -403 798 -430 852 -430 863 0 6 -3 12 -8 14
-15 6 -393 770 -388 784 3 7 18 16 33 20 73 16 147 35 151 39 6 5 5 446 -1
452 -5 5 -3606 10 -3812 5z m3146 -541 c11 -2 340 -663 336 -675 -3 -8 -432
-11 -1628 -12 -1560 -1 -1664 1 -1631 26 4 3 48 86 97 185 50 99 93 182 98
183 4 2 7 10 7 17 0 18 128 247 149 265 15 13 172 15 1292 13 700 0 1277 -1
1280 -2z"/>
<path d="M1367 5380 c-17 -9 -36 -25 -41 -36 -6 -10 -15 -22 -19 -25 -8 -6 -3
-1078 6 -1144 3 -22 8 -60 11 -85 15 -106 30 -190 48 -270 10 -47 21 -95 23
-107 3 -24 8 -38 65 -213 165 -503 474 -974 871 -1326 108 -96 272 -224 287
-224 6 0 12 -4 14 -9 3 -8 172 -117 208 -134 8 -4 29 -15 45 -25 120 -73 459
-221 544 -238 14 -3 28 -7 33 -10 9 -6 47 -15 66 -16 6 -1 12 -5 12 -10 0 -5
4 -6 10 -3 5 3 18 2 27 -4 10 -5 32 -11 48 -14 17 -3 73 -15 125 -26 52 -11
113 -22 135 -25 22 -3 57 -8 78 -11 20 -3 53 -7 73 -10 44 -6 56 -13 48 -26
-3 -5 -5 -81 -5 -169 l1 -158 -79 -51 c-179 -115 -448 -255 -596 -310 -33 -13
-69 -27 -80 -31 -71 -28 -218 -70 -300 -84 -16 -3 -41 -8 -55 -11 -14 -3 -65
-7 -115 -10 -49 -3 -92 -10 -96 -16 -9 -15 -9 -354 1 -369 7 -11 285 -13 1597
-13 874 0 1595 3 1601 7 9 5 12 61 12 191 0 211 10 192 -108 200 -40 3 -84 7
-100 9 -41 7 -116 20 -122 21 -3 1 -18 5 -35 9 -129 31 -289 86 -357 122 -15
8 -30 14 -33 14 -10 -2 -200 92 -217 108 -10 8 -18 12 -18 8 0 -3 -36 16 -81
44 -44 27 -82 50 -85 50 -6 0 -136 90 -154 106 -11 11 -14 49 -15 184 -1 114
2 170 9 171 6 1 20 3 31 4 11 1 47 6 80 10 33 4 71 9 85 11 14 2 57 10 95 18
39 9 81 18 95 20 14 3 25 5 25 6 0 1 11 3 24 6 38 7 234 65 252 75 9 4 27 10
40 12 63 12 477 205 520 243 8 8 18 14 22 14 17 0 280 182 359 248 13 11 46
39 73 62 121 102 291 278 390 404 17 21 37 46 45 56 8 10 21 26 28 37 7 10 36
52 65 94 28 41 58 86 66 100 8 13 32 52 53 87 53 86 138 258 183 367 20 50 40
99 45 110 22 49 74 220 107 350 14 55 52 257 58 305 3 30 8 62 10 70 12 46 18
258 20 690 2 464 1 487 -18 521 -32 60 -44 63 -321 64 -285 2 -282 2 -272 -74
9 -68 40 -104 117 -140 37 -17 70 -31 73 -31 19 0 77 -68 86 -101 7 -24 9
-160 6 -361 -3 -271 -7 -343 -25 -447 -32 -186 -86 -362 -157 -516 -15 -33
-28 -62 -29 -65 -7 -23 -51 -100 -57 -100 -4 0 -8 -5 -8 -11 0 -15 -79 -126
-148 -209 -95 -114 -309 -328 -492 -490 -123 -109 -353 -275 -487 -352 -135
-76 -331 -168 -458 -214 -86 -32 -191 -66 -214 -70 -14 -3 -28 -7 -32 -9 -4
-3 -24 -7 -45 -11 -22 -3 -47 -10 -56 -15 -10 -5 -18 -8 -18 -5 0 2 -18 0 -40
-5 -22 -5 -57 -12 -78 -15 -20 -3 -48 -7 -62 -9 -149 -25 -587 -25 -662 -1 -7
3 -33 8 -58 11 -69 10 -115 19 -148 29 -9 3 -28 7 -42 10 -50 10 -147 38 -234
67 -150 51 -457 193 -506 235 -8 7 -19 13 -25 14 -30 6 -263 167 -380 264
-291 239 -661 628 -736 774 -8 15 -16 29 -19 32 -15 13 -129 267 -136 300 0 3
-4 14 -8 25 -22 58 -59 191 -70 250 -3 17 -7 41 -10 55 -24 116 -29 201 -31
495 -3 408 -6 398 140 465 76 35 110 61 129 100 18 36 20 106 4 116 -7 5 -123
9 -257 10 -208 0 -247 -2 -274 -16z m3084 -3992 c4 -67 4 -117 0 -129 -5 -11
-28 -14 -93 -15 -96 0 -96 0 -92 71 1 22 2 50 3 63 1 21 5 22 91 22 65 0 90
-3 91 -12z m5 -271 c-1 -23 -4 -45 -9 -48 -10 -7 -167 -3 -175 5 -3 4 -6 24
-7 46 l-1 38 96 0 96 0 0 -41z m217 -234 c39 -27 74 -51 77 -54 3 -3 12 -9 20
-12 8 -4 33 -19 55 -32 22 -14 48 -28 58 -32 9 -3 17 -9 17 -14 0 -5 6 -9 13
-9 7 0 22 -6 33 -14 17 -13 -58 -15 -595 -15 -530 0 -611 2 -595 14 11 8 27
15 37 15 9 0 17 4 17 8 0 4 19 18 43 30 70 36 209 120 232 140 22 19 46 20
278 21 l237 1 73 -47z m1158 -488 c2 -39 -2 -79 -7 -84 -9 -10 -2934 -6 -2935
4 -4 38 -3 82 3 95 6 14 170 15 1472 16 l1466 0 1 -31z"/>
</g>
</svg>
