<svg width="42" height="14" viewBox="0 0 42 14" fill="none" xmlns="http://www.w3.org/2000/svg">
<path d="M40.3594 5.76249H5.61441L11.37 1.89364C12.0123 1.4619 12.0147 0.760258 11.3755 0.326464C10.7364 -0.107386 9.69751 -0.108992 9.05529 0.322696L0.482703 6.08519C0.482128 6.08553 0.481718 6.08591 0.481226 6.08625C-0.159355 6.51799 -0.161406 7.2219 0.481062 7.65509C0.481636 7.65542 0.482046 7.65581 0.482539 7.65614L9.05513 13.4186C9.69727 13.8503 10.7361 13.8488 11.3754 13.4149C12.0146 12.9811 12.0121 12.2794 11.3699 11.8477L5.61441 7.97884H40.3594C41.2655 7.97884 42 7.48271 42 6.87067C42 6.25862 41.2655 5.76249 40.3594 5.76249Z" fill="#0D7A5F"/>
</svg>
