<svg width="28" height="28" fill="none" xmlns="http://www.w3.org/2000/svg"><g clip-path="url(#clip0)" fill="#FDFFE6"><path d="M21.515 10.173h-.87v3.496h.288c.965 0 1.747.782 1.747 1.748V19.3c0 .965-.782 1.748-1.747 1.748h-.288v3.496h.87a4.661 4.661 0 004.661-4.662v-5.048a4.661 4.661 0 00-4.66-4.661zM17.09 1.186a3.188 3.188 0 00-1.797.424 1.133 1.133 0 01-1.431-.257A3.781 3.781 0 0010.959 0a3.78 3.78 0 00-2.902 1.354 1.133 1.133 0 01-1.431.256 3.188 3.188 0 00-1.797-.424 3.209 3.209 0 00-3.002 3.042A3.191 3.191 0 002.84 6.716H6.41v4.619a1.748 1.748 0 003.496 0V6.716h9.173a3.191 3.191 0 001.012-2.487 3.209 3.209 0 00-3.001-3.043z"/><path d="M11.547 11.335a3.392 3.392 0 01-3.389 3.388 3.392 3.392 0 01-3.388-3.388V8.357H2.914v17.895c0 .966.783 1.748 1.748 1.748h12.594c.966 0 1.748-.782 1.748-1.748V8.357h-7.457v2.978z"/></g><defs><clipPath id="clip0"><path fill="#fff" d="M0 0h28v28H0z"/></clipPath></defs></svg>