<svg width="28" height="28" fill="none" xmlns="http://www.w3.org/2000/svg"><path d="M23.898 22.014l-.82-.82-.82.82v5.403h1.64v-5.403z" fill="#FDFFE6"/><path d="M24.719 15.112a.82.82 0 01-.82.82h-1.641a.82.82 0 01-.82-.82v-4.101h-3.282v16.406h2.461v-5.742a.82.82 0 01.24-.58l1.641-1.641a.82.82 0 011.16 0l1.641 1.64a.82.82 0 01.24.58v5.743h1.64a.82.82 0 00.821-.82V11.01h-3.281v4.102zM19.797 1.167a.82.82 0 00-.82.82v3.281l-.58.58a.82.82 0 00-.24.58V9.37h3.28V6.429a.82.82 0 00-.24-.58l-.58-.58V1.986a.82.82 0 00-.82-.82zM27.18 5.268v-3.28a.82.82 0 10-1.64 0v3.28l-.58.58a.82.82 0 00-.241.58V9.37H28V6.429a.82.82 0 00-.24-.58l-.58-.58zM14 6.089a.82.82 0 00-.82.82v2.953l-1.696 1.64v10.193a4.223 4.223 0 012.516-.84c.927 0 1.828.32 2.516.84V11.503l-1.696-1.64V6.908a.82.82 0 00-.82-.82zm.82 10.664a.82.82 0 11-1.64 0v-1.64a.82.82 0 111.64 0v1.64zM5.742 22.014l-.82-.82-.82.82v5.403h1.64v-5.403z" fill="#FDFFE6"/><path d="M.82 27.417h1.64v-5.742a.82.82 0 01.241-.58l1.64-1.641a.82.82 0 011.16 0l1.641 1.64a.82.82 0 01.24.58v5.743h2.462V11.01H6.563v4.102a.82.82 0 01-.82.82H4.101a.82.82 0 01-.82-.82v-4.101H0v15.585c0 .453.367.82.82.82zM11.484 27.417h5.032V25.01c0-1.356-1.16-2.515-2.516-2.515-1.357 0-2.516 1.159-2.516 2.515v2.407zM3.281 6.428a.82.82 0 00-.24-.58l-.58-.58v-3.28a.82.82 0 10-1.64 0v3.28l-.58.58a.82.82 0 00-.241.58V9.37h3.281V6.429zM8.203 1.167a.82.82 0 00-.82.82v3.281l-.58.58a.82.82 0 00-.24.58V9.37h3.28V6.429a.82.82 0 00-.24-.58l-.58-.58V1.986a.82.82 0 00-.82-.82z" fill="#FDFFE6"/></svg>