<svg width="32" height="32" fill="none" xmlns="http://www.w3.org/2000/svg"><path d="M15.802 10.155L4.531 19.467a.267.267 0 01-.01.058.269.269 0 00-.01.059v9.428c0 .34.124.636.372.884.249.249.543.374.882.374h7.528v-7.543h5.018v7.543h7.528c.34 0 .634-.125.882-.374.248-.248.373-.543.373-.884v-9.428a.277.277 0 00-.02-.117l-11.272-9.312z" fill="#FDFFE6"/><path d="M31.386 16.944l-4.293-3.575V5.354a.612.612 0 00-.176-.451.608.608 0 00-.451-.177h-3.764a.61.61 0 00-.45.177.614.614 0 00-.177.451v3.83l-4.783-4.007c-.418-.34-.914-.51-1.49-.51-.575 0-1.071.17-1.49.51L.219 16.944a.571.571 0 00-.216.422.637.637 0 00.137.462l1.216 1.454c.104.117.241.19.411.216a.728.728 0 00.471-.138L15.802 8.026 29.367 19.36a.603.603 0 00.412.137h.059a.669.669 0 00.412-.216l1.215-1.453a.637.637 0 00.137-.462.573.573 0 00-.216-.422z" fill="#FDFFE6"/></svg>