<svg width="24" height="25" viewBox="0 0 24 25" fill="none" xmlns="http://www.w3.org/2000/svg">
<path d="M12.7621 2C8.76146 2 5.23085 4.27585 3.58679 7.72591L2.44315 5.38476L1 6.07007L3.37508 10.9306L8.30519 8.58889L7.60994 7.16638L5.04164 8.38593C6.42903 5.48875 9.39817 3.57919 12.7621 3.57919C17.4719 3.57919 21.3034 7.35678 21.3034 12C21.3034 16.6432 17.4719 20.4209 12.7621 20.4209C9.98889 20.4209 7.37762 19.0852 5.7773 16.8481L4.46806 17.7584C6.36878 20.4144 9.46917 22 12.7621 22C18.3546 22 22.9048 17.514 22.9048 12C22.9048 6.48596 18.3547 2 12.7621 2Z" fill="#FDFFE6"/>
</svg>
