<svg class="logo-svg" xmlns="http://www.w3.org/2000/svg" viewBox="0 0 320 265" preserveAspectRatio="none"><g fill="#090A0F"><path d="M124.2 39.4C82.1 56.5 40.8 75.1.2 95.5c40.9-16.8 82.2-31.8 124.3-45.2-.1-4.3-.2-6.5-.3-10.9z" style="--darkreader-inline-fill:#07080c"/><path d="M.3 95.8l-.3-.5C40.3 75 82 56.1 124.1 39.2l.4-.2.3 11.5-.2.1C82.5 64.1 40.7 79.3.3 95.8zm123.6-55.9C84.5 55.8 45.4 73.4 7.5 92.2c38-15.3 77.2-29.5 116.6-42.1l-.2-10.2z" style="--darkreader-inline-fill:#07080c"/><g><path d="M195.8 39.4c42.2 17 83.4 35.6 124.1 56.1-40.9-16.8-82.2-31.8-124.3-45.2 0-4.3.1-6.5.2-10.9z" style="--darkreader-inline-fill:#07080c"/><path d="M319.7 95.8C279.3 79.2 237.5 64 195.4 50.6l-.2-.1.3-11.5.4.2C238 56.1 279.8 75 320 95.3l-.3.5zM195.8 50.1c39.4 12.6 78.6 26.8 116.7 42.1-37.8-18.8-77-36.4-116.4-52.3l-.3 10.2z" style="--darkreader-inline-fill:#07080c"/></g><g><path d="M.6 99.2c6.1-2.3 9.2-3.4 15.3-5.6 6.2-2.1 9.3-3.2 15.4-5.3 12.4-4.1 18.7-6.1 31.2-9.9 12.6-3.7 18.9-5.5 31.7-9 6.4-1.7 9.6-2.5 16-4.2 6.4-1.6 9.6-2.4 16.1-3.9-6.4 1.7-9.6 2.6-15.9 4.4-6.4 1.7-9.5 2.6-15.9 4.4-12.7 3.6-19 5.4-31.6 9.2C50.3 83 44.1 85 31.6 89l-15.5 5C9.9 96.2 6.8 97.2.6 99.2z" style="--darkreader-inline-fill:#07080c"/><path d="M.7 99.5L.5 99c6.3-2.3 9.3-3.4 15.3-5.6 6.1-2.1 9.2-3.2 15.5-5.3C43.7 84 49.9 82 62.5 78.2c12.6-3.7 18.8-5.5 31.7-9 6.4-1.7 9.6-2.5 16-4.2 6.3-1.6 9.5-2.3 16.1-3.9l.2.6c-6.5 1.7-9.7 2.6-15.9 4.4-6.6 1.8-9.7 2.7-15.9 4.4-12.8 3.6-19 5.4-31.6 9.2-12.5 3.7-18.7 5.6-31.3 9.7-6.4 2-9.5 3-15.5 5-6.5 2.1-9.6 3.1-15.6 5.1zm105.1-32.7c-3.8 1-6.8 1.8-11.5 3-12.9 3.5-19.1 5.3-31.6 9-12.6 3.8-18.7 5.8-31.2 9.9-4.7 1.6-7.5 2.5-11.2 3.8 3.6-1.2 6.5-2.1 11.3-3.6 12.6-4.1 18.8-6 31.3-9.7 12.6-3.8 18.8-5.7 31.6-9.2 4.5-1.3 7.4-2.1 11.3-3.2z" style="--darkreader-inline-fill:#07080c"/><g><path d="M319.4 99.2c-6.2-2.1-9.3-3.1-15.5-5.1l-15.5-5c-12.4-4-18.7-5.9-31.3-9.7-12.6-3.8-18.9-5.7-31.6-9.2-6.3-1.8-9.5-2.7-15.9-4.4-6.4-1.8-9.6-2.7-15.9-4.4 6.5 1.5 9.7 2.3 16.1 3.9 6.4 1.6 9.6 2.5 16 4.1 12.7 3.5 19.1 5.3 31.7 9 12.6 3.8 18.8 5.8 31.2 9.9 6.2 2.1 9.3 3.1 15.4 5.3 6.2 2.3 9.2 3.4 15.3 5.6z" style="--darkreader-inline-fill:#07080c"/><path d="M319.3 99.5c-6-2-9.1-3-15.5-5.1-6.3-2.1-9.4-3.1-15.5-5-12.7-4.1-18.8-6-31.3-9.7-12.6-3.8-18.8-5.6-31.6-9.2-6.2-1.8-9.3-2.6-15.9-4.4-6.2-1.7-9.4-2.6-15.9-4.4l.2-.6c6.6 1.5 9.8 2.3 16.1 3.9 6.6 1.7 9.7 2.5 16 4.2 12.8 3.5 19 5.2 31.7 9 12.5 3.8 18.7 5.8 31.2 9.9 6.4 2.2 9.4 3.2 15.5 5.3 6.1 2.2 9.1 3.3 15.3 5.6l-.3.5zM214.1 66.8c4 1.1 6.9 1.9 11.5 3.3 12.8 3.6 19 5.4 31.6 9.2 12.5 3.7 18.6 5.6 31.3 9.7 4.5 1.4 7.3 2.3 11 3.5-3.5-1.2-6.4-2.2-11-3.7-12.6-4.1-18.7-6.1-31.2-9.9-12.7-3.8-18.9-5.5-31.6-9-4.7-1.4-7.6-2.1-11.6-3.1z" style="--darkreader-inline-fill:#07080c"/></g></g></g><path fill="#090A0F" d="M21.1 187.6c44.5 24.7 90.2 43.7 138.9 58.2 48.8-14.4 94.5-33.5 138.9-58.2-43.9 28.8-89.6 51.6-138.9 69.7-49.3-18.2-95-40.9-138.9-69.7" style="--darkreader-inline-fill:#07080c"/><path fill="#090A0F" d="M299.9 191.7c-12.4 8.9-18.8 13.1-32.1 21.3-13.3 8.1-20.1 12-34.1 19.3-23.9 12.5-48.5 23-73.6 32.6-.1 0-.1 0-.2.1-.1 0-.1 0-.2-.1-25.1-9.6-49.7-20.1-73.6-32.6-14-7.3-20.8-11.2-34.1-19.3-13.2-8.2-19.6-12.4-32.1-21.3 12.5 8.7 19 12.9 32.3 20.9 13.3 8 20.1 11.9 34.1 19.2 23.9 12.4 48.5 22.7 73.7 32.3h-.4c25.1-9.5 49.8-19.9 73.7-32.3 14-7.3 20.9-11.1 34.1-19.2 13.5-8 20-12.2 32.5-20.9zM94.3 185.3c5.5-.3 11-.5 16.4-.7h98.6l16.4.7-16.4.7h-98.6c-5.5-.2-11-.4-16.4-.7z" style="--darkreader-inline-fill:#07080c"/><g fill="#090A0F"><path d="M37.3 123.8c1.7-5.9 2.6-8.8 4.6-14.7 0 0-1-1.4-4.2-1.5-1.6-.1-3.4-.1-5.5.6-2.8.8-4.8 2-6.2 3.4-1.3 1.4-2.1 3.1-2.4 5-.3 1.9-.1 4 .4 6.3s1.7 6.1 2.6 8.7c1.2 3.5 2.8 7.6 4 9.8 1.2 2.1 2.4 3.7 3.8 4.8 1.3 1 2.8 1.6 4.4 1.7 1.6.1 3.3-.2 5.3-.8 1.6-.5 2.9-1.2 4-2.2 1.1-1 2-2.1 2.7-3.4.7-1.3 1.2-2.7 1.5-4.1.3-1.5.5-3 .4-4.5.3-.1.5-.1.9-.2 1.2 4.3 1.7 6.5 2.9 10.8-.3.1-.5.1-.8.2-.3-.4-.6-.6-.9-.7-.3-.1-.7-.1-1.2.1-.4.1-.9.4-1.6.7-.6.4-1.3.8-2.1 1.3s-1.7.9-2.6 1.4c-1 .5-2 .9-3.1 1.2-2.5.8-5.1 1-7.8.9-2.7-.2-5.2-.8-7.5-1.8-2.4-1-4.5-2.5-6.4-4.3-1.9-1.8-3.8-5.4-4.7-8-1-2.8-1.8-6.9-1.3-9.7.5-2.8 1.4-5.3 2.9-7.6s3.3-4.4 5.6-6.1c2.2-1.7 4.6-2.9 7.1-3.7 1.2-.4 2.4-.6 3.5-.7 1.1-.1 2.2-.2 3.1-.2 1 0 1.8-.1 2.6-.1s1.2-.1 1.7-.2.9-.3 1.2-.5c.2-.2.6-.5.6-1.1l1.5.5c-3.9 7.5-5.7 11.2-9 18.7z" style="--darkreader-inline-fill:#e0deda"/><path d="M37.9 149c-.5 0-1.1 0-1.6-.1-2.7-.2-5.3-.8-7.6-1.9-2.4-1.1-4.6-2.5-6.5-4.4-2-2-3.9-5.6-4.8-8.1-1-2.7-1.8-7-1.3-9.8.5-2.8 1.5-5.4 2.9-7.7 1.5-2.4 3.4-4.4 5.6-6.1 2.3-1.7 4.7-3 7.2-3.7 1.2-.4 2.4-.6 3.6-.7 1.1-.1 2.2-.2 3.1-.2.9 0 1.7-.1 2.6-.1.8 0 1.1-.1 1.6-.2.6-.2.9-.3 1-.5.3-.3.5-.5.5-.8v-.4l2.3.7-.2.3c-3.7 7.5-5.4 11.1-8.8 18.7l-.6-.2c1.7-5.8 2.6-8.7 4.5-14.5-.3-.3-1.4-1.2-3.9-1.3h-1.3c-1.5 0-2.8.2-4.1.6-2.7.8-4.7 1.9-6 3.3-1.3 1.4-2 3-2.3 4.8-.3 1.8-.1 3.9.4 6.2.5 2.3 1.7 6.2 2.6 8.7 1.1 3.2 2.7 7.5 4 9.7 1.2 2.1 2.4 3.7 3.7 4.7 1.3 1 2.7 1.6 4.2 1.6 1.5.1 3.2-.2 5.2-.7 1.5-.5 2.8-1.2 3.9-2.1 1.1-1 2-2.1 2.6-3.3.7-1.2 1.2-2.6 1.5-4.1.3-1.5.4-2.9.4-4.4v-.2l1.4-.4 3.1 11.4-1.3.4-.1-.2c-.2-.3-.5-.5-.7-.6-.2-.1-.6 0-1 .1s-.9.3-1.5.7c-.6.4-1.3.8-2.1 1.3s-1.7 1-2.6 1.4c-1 .5-2 .9-3.1 1.3-2.2.4-4.3.8-6.5.8zm6.9-43.9c-.1.3-.3.6-.6.9-.3.2-.7.4-1.3.6-.5.1-.9.2-1.8.2s-1.7 0-2.6.1c-.9 0-2 .1-3.1.2s-2.3.3-3.5.7c-2.4.7-4.8 2-7 3.6-2.2 1.7-4 3.7-5.5 6-1.4 2.3-2.4 4.8-2.8 7.5-.5 2.8.4 6.9 1.3 9.5.9 2.5 2.8 6 4.6 7.8 1.8 1.8 4 3.2 6.3 4.2s4.8 1.6 7.4 1.8c2.6.2 5.2-.1 7.7-.8 1.1-.3 2.1-.7 3-1.2.9-.5 1.8-.9 2.6-1.4.8-.5 1.5-.9 2.1-1.2.7-.4 1.2-.6 1.6-.8.5-.2 1-.2 1.3-.1.3.1.6.3.9.6l.3-.1-2.5-10.2-.3.1c0 1.4-.1 2.9-.4 4.3-.3 1.5-.9 2.9-1.6 4.2-.7 1.3-1.6 2.5-2.8 3.5-1.1 1-2.5 1.8-4.1 2.2-2 .6-3.8.9-5.4.8-1.6-.1-3.2-.7-4.5-1.8-1.4-1.1-2.7-2.7-3.9-4.9-1.2-2.2-2.9-6.5-4-9.8-.9-2.6-2-6.4-2.6-8.8-.5-2.3-.7-4.5-.4-6.4.3-1.9 1.1-3.7 2.5-5.1 1.3-1.5 3.5-2.6 6.3-3.5 1.4-.4 2.7-.6 4.3-.6h1.3c3.4.2 4.4 1.6 4.5 1.7l.1.1v.1c-1.4 4.2-2.2 6.8-3.2 10.1 2.2-4.8 3.8-8.3 6.7-14l-.9-.1zM65.4 113.5c.5 2.3.8 3.4 1.3 5.7h.1c.4-1.5 1-2.8 2-4 .9-1.2 2.3-2 4.2-2.4 1.6-.3 2.9-.2 4.1.4 1.1.6 1.8 1.6 2.1 3 .2 1 .1 1.9-.3 2.6-.4.7-1.2 1.2-2.4 1.4-.9.2-1.7.2-2.4 0-.8-.2-1.3-.7-1.5-1.6 0-.1 0-.3-.1-.6v-.9-.8-.4c-.1-.3-.2-.5-.3-.6-.1-.1-.3-.3-.4-.3-.2-.1-.5-.1-.8 0-.4.1-.8.4-1.3.8-.5.5-.9 1-1.3 1.8-.3.7-.6 1.6-.7 2.5-.2 1-.1 2 .1 3.1 1.4 6.4 2.2 9.6 3.6 16 1.7-.4 2.5-.6 4.2-.9.1.3.1.4.2.7-5.6 1.2-8.4 1.9-14 3.3-.1-.3-.1-.4-.2-.7 1.4-.3 2.1-.5 3.4-.9-2.3-9.3-3.4-14-5.7-23.4-1.5.4-2.2.5-3.6.9-.1-.3-.1-.4-.2-.7 3.8-1.7 5.9-2.5 9.9-4z" style="--darkreader-inline-fill:#e0deda"/><path d="M61.4 142.5l-.3-1.3.3-.1c1.3-.3 2-.5 3.1-.8l-5.6-22.8c-1.3.3-2 .5-3.3.8l-.3.1-.3-1.3.3-.1c4.1-1.6 6.1-2.4 10.1-3.9l.3-.1 1.2 5.1c.4-1.1 1-2.2 1.7-3.2 1-1.3 2.5-2.1 4.4-2.5 1.6-.3 3.1-.2 4.3.4 1.2.6 2 1.7 2.3 3.2.2 1.1.1 2.1-.4 2.8-.5.8-1.3 1.3-2.6 1.5-.9.2-1.8.2-2.6 0-.9-.2-1.5-.8-1.7-1.9 0-.1 0-.3-.1-.6v-.9-.9-.3c-.1-.2-.2-.4-.2-.5-.1-.1-.2-.2-.3-.2-.1-.1-.3-.1-.6 0s-.7.3-1.2.7c-.5.4-.9 1-1.2 1.7-.3.7-.6 1.5-.7 2.4-.1.9-.1 1.9.1 3l3.6 15.6c1.5-.3 2.3-.5 3.9-.9l.3-.1.1 1.6-.3.1c-5.6 1.2-8.4 1.9-14 3.3l-.3.1zm.4-.9v.1c5.4-1.4 8.1-2 13.4-3.2v-.1c-1.5.3-2.3.5-3.9.9l-.3.1-3.7-16.3c-.3-1.1-.3-2.2-.2-3.2.2-1 .4-1.9.8-2.6.4-.8.8-1.4 1.3-1.9s1-.8 1.4-.9c.4-.1.7-.1 1 0 .2.1.4.2.6.4.1.1.3.4.4.7v2.6c.2.8.6 1.2 1.2 1.4.7.2 1.5.2 2.3 0 1.1-.2 1.8-.6 2.2-1.3.4-.6.5-1.4.3-2.4-.3-1.3-.9-2.2-1.9-2.7-1.1-.6-2.4-.7-3.9-.4-1.8.4-3.2 1.1-4 2.3-.9 1.2-1.5 2.5-1.9 3.9v.2l-.5.1-.2-.3-1.2-5.4c-3.7 1.4-5.7 2.1-9.5 3.6v.1c1.3-.3 2-.5 3.3-.8l.3-.1 5.9 24-.4.1c-1 .6-1.6.8-2.8 1.1zM292.2 123.9c-.7 2.2-1.1 3.3-1.8 5.6h.1c1.1-1.1 2.3-1.9 3.7-2.4 1.4-.5 3.1-.5 4.9.1 1.5.5 2.7 1.3 3.3 2.4.7 1.1.8 2.3.3 3.6-.4 1-.9 1.7-1.6 2.1-.7.4-1.7.4-2.8 0-.8-.3-1.5-.7-2.1-1.3-.6-.6-.7-1.3-.4-2.1 0-.1.1-.3.2-.5s.3-.5.4-.8c.2-.3.3-.5.4-.7l.2-.4c.1-.3.1-.5 0-.7 0-.2-.1-.3-.2-.5s-.4-.3-.7-.4c-.4-.1-.9-.1-1.5 0-.7.1-1.3.4-2 .9-.7.4-1.3 1-1.9 1.8-.6.7-1.1 1.7-1.5 2.7-2 6.2-3 9.3-5.1 15.6 1.6.5 2.5.8 4.1 1.4-.1.3-.1.4-.2.7-5.5-1.9-8.3-2.7-13.8-4.4.1-.3.1-.4.2-.7 1.4.4 2 .6 3.4 1 2.8-9.2 4.2-13.8 7.1-23-1.4-.4-2.2-.7-3.6-1.1.1-.3.1-.4.2-.7 4.3.6 6.4.9 10.7 1.8z" style="--darkreader-inline-fill:#e0deda"/><path d="M288.2 151.2l-.3-.1c-5.5-1.9-8.3-2.7-13.8-4.4l-.3-.1.4-1.3.3.1c1.3.4 1.9.6 3.1.9l6.9-22.4c-1.2-.4-2-.6-3.3-1l-.3-.1.4-1.3h.3c4.4.7 6.5 1.1 10.7 1.9l.3.1-1.6 5c.9-.8 2-1.4 3.1-1.8 1.5-.6 3.2-.5 5.1.1 1.6.6 2.8 1.4 3.5 2.6.7 1.2.8 2.5.3 3.9-.4 1.1-1 1.8-1.8 2.2-.8.4-1.8.4-3.1 0-.9-.3-1.6-.8-2.2-1.3-.7-.6-.8-1.5-.5-2.5 0-.1.1-.3.3-.5.1-.2.3-.5.4-.8.2-.3.3-.5.4-.7.1-.2.2-.3.2-.3 0-.2.1-.4 0-.5 0-.1-.1-.2-.2-.4-.1-.1-.3-.2-.5-.3-.3-.1-.8-.1-1.4 0-.6.1-1.2.4-1.9.8-.6.4-1.3 1-1.9 1.7-.6.7-1.1 1.6-1.4 2.6l-5 15.3c1.4.5 2.3.7 3.8 1.3l.3.1-.3 1.2zm-13.6-5c5.3 1.6 8 2.4 13.2 4.2v-.1c-1.4-.5-2.3-.8-3.8-1.3l-.3-.1 5.2-15.9c.4-1.1.9-2.1 1.5-2.8.6-.8 1.3-1.4 2-1.8.7-.5 1.4-.8 2.1-.9.7-.1 1.3-.1 1.7 0 .4.1.7.3.8.5.2.2.2.4.3.7 0 .2 0 .5-.1.8 0 .1 0 .1-.2.4-.1.2-.3.5-.4.7-.1.3-.3.5-.4.7-.1.2-.2.4-.2.5-.3.8-.1 1.3.3 1.8.5.5 1.2.9 2 1.2 1.1.4 1.9.4 2.6.1.7-.3 1.1-1 1.5-1.9.4-1.2.4-2.3-.3-3.3-.6-1-1.7-1.8-3.2-2.3-1.7-.6-3.3-.6-4.7-.1-1.4.5-2.6 1.3-3.6 2.3l-.1.1-.5-.2v-.3l1.7-5.2c-3.9-.7-6-1.1-10-1.7v.1c1.2.4 2 .6 3.3 1l.3.1-7.3 23.6-.3-.1c-1.3-.4-1.9-.6-3.1-.9v.1zM107.9 133.7c-.9.3-1.8.5-2.6.6-1.8.3-3.2.1-4.2-.4s-1.6-1.3-2-2.4H99c-.4 1.5-1 2.5-1.9 3.2-.9.6-2.3 1.1-4.2 1.5-.9.1-1.7.2-2.7.2-.9 0-1.8-.2-2.6-.4s-1.5-.7-2.1-1.2c-.6-.6-1-1.4-1.2-2.3-.2-1-.1-1.9.1-2.6.3-.8.7-1.4 1.3-2 .6-.6 1.3-1.1 2.1-1.6.8-.4 1.6-.9 2.5-1.3 1.4-.7 2.6-1.2 3.5-1.7.9-.4 1.6-.9 2-1.3.5-.4.8-.8.9-1.3.1-.4-.3-3.8-.4-4.4-.2-1.3-.3-1.9-.5-3.2-.1-.9-.5-1.8-1.1-2.4-.6-.7-1.6-.9-3-.7-.9.1-1.6.5-2.2.9-.6.5-.8 1.2-.6 2.2 0 .1.1.3.1.5.1.3.2.5.3.8l.3.9c.1.3.1.5.2.6.1.5 0 1-.2 1.3-.2.3-.5.6-.8.8-.3.2-.7.3-1.1.4-.4.1-.7.2-1 .2-.4.1-.8.1-1.2.1-.4 0-.8 0-1.1-.2-.3-.1-.6-.4-.9-.7-.3-.3-.5-.8-.6-1.3-.2-.9 0-1.8.4-2.6s1-1.5 1.9-2.2c.8-.6 1.8-1.2 2.9-1.6 1.1-.4 2.3-.8 3.5-1 1.4-.2 2.8-.3 4.1-.3 1.3 0 2.5.2 3.5.7 1 .4 1.9 1.1 2.5 2 .7.9 1.1 2.1 1.3 3.5.9 6.3 1.3 9.5 2.2 15.8.1.7.3 1.2.5 1.7.3.5.8.7 1.6.6.5-.1.8-.2 1.1-.4.3-.2.5-.5.8-.9.2.2.3.2.5.4-.2.7-.9 1.2-1.8 1.5zm-10.8-12.2c0 .2-.2.4-.3.7-.2.2-.5.5-1 .8-.6.4-1.3.8-1.9 1.3-.6.4-1.2.9-1.7 1.4-.5.5-.8 1.2-1.1 1.9-.2.7-.3 1.6-.1 2.6.1.4.2.9.3 1.5.1.5.4 1.1.7 1.5.3.5.7.9 1.3 1.2.5.3 1.2.4 2 .2.5-.1.9-.2 1.3-.5s.8-.7 1.1-1.2c.3-.5.5-1.1.6-1.9.1-.7.1-1.6-.1-2.6-.4-2.8-.6-4.1-1.1-6.9z" style="--darkreader-inline-fill:#e0deda"/><path d="M90.5 136.7h-.3c-.9 0-1.8-.2-2.7-.4-.9-.3-1.6-.7-2.2-1.3-.6-.6-1.1-1.5-1.3-2.5-.2-1.1-.1-2 .2-2.8.3-.8.8-1.5 1.4-2.1.6-.6 1.3-1.2 2.1-1.6.7-.4 1.6-.9 2.5-1.3.6-.3 1.1-.5 1.6-.8.7-.3 1.3-.6 1.9-.9.9-.5 1.5-.9 2-1.2.4-.4.7-.8.8-1.2.1-.4-.2-3.4-.4-4.3l-.5-3.2c-.1-.9-.5-1.6-1.1-2.3-.5-.6-1.4-.8-2.7-.6-.8.1-1.5.4-2 .9-.5.4-.7 1-.5 1.9 0 .1.1.3.1.5.1.3.2.5.3.8l.3.9c.1.3.1.5.2.6.1.6 0 1.1-.2 1.5-.2.4-.5.7-.9.9-.4.2-.7.4-1.2.5-.4.1-.7.2-1 .2-.4.1-.8.1-1.2.1h-.1c-.4 0-.8-.1-1.1-.2-.4-.2-.7-.4-1-.8-.3-.4-.5-.8-.6-1.5-.2-1 0-1.9.4-2.8.4-.8 1.1-1.6 1.9-2.3.9-.7 1.9-1.2 3-1.7s2.4-.8 3.6-1c1.4-.2 2.7-.3 3.9-.3h.3c1.3 0 2.5.2 3.6.7 1.1.4 2 1.1 2.7 2.1.7.9 1.2 2.2 1.4 3.7l2.2 15.8c.1.6.3 1.2.5 1.6.1.2.3.4.9.4h.4c.4-.1.7-.2 1-.3.2-.2.5-.4.7-.8l.2-.3 1 .8-.1.2c-.4.9-1.2 1.5-2.2 1.7-.9.3-1.8.5-2.7.6-1.9.3-3.3.1-4.4-.4-.8-.4-1.5-1.1-1.9-1.9-.4 1.2-1 2.1-1.8 2.7-1 .7-2.4 1.2-4.3 1.5-1.1.1-1.9.2-2.7.2zm2.2-27.3c1 0 1.8.3 2.3.9.6.7 1.1 1.6 1.2 2.6l.5 3.2s.5 4 .4 4.6c-.2.5-.5 1-1 1.4-.5.4-1.2.9-2.1 1.3-.5.3-1.2.6-1.9.9-.5.2-1 .5-1.6.8-.9.4-1.8.9-2.5 1.3-.8.4-1.4.9-2 1.5-.5.6-1 1.2-1.2 1.9-.3.7-.3 1.5-.1 2.5.2.9.5 1.6 1.1 2.2.5.5 1.2.9 2 1.2.8.2 1.6.4 2.5.4h.3c.8 0 1.6-.1 2.3-.2 1.8-.3 3.2-.8 4.1-1.4.9-.6 1.5-1.6 1.8-3v-.2l.5-.1.1.2c.4 1 1 1.7 1.9 2.2.9.5 2.2.6 4 .3.8-.1 1.7-.3 2.6-.6.8-.2 1.3-.6 1.7-1.2l-.1-.1c-.2.3-.4.5-.7.7-.3.2-.7.4-1.3.5-1.1.1-1.7-.3-1.9-.7-.3-.5-.5-1.1-.6-1.8l-2.2-15.8c-.2-1.4-.6-2.6-1.3-3.4-.6-.8-1.5-1.5-2.4-1.9-1-.4-2.1-.6-3.3-.6h-.3c-1.2 0-2.5.1-3.8.3-1.2.2-2.4.5-3.5 1-1.1.4-2 1-2.8 1.6-.8.6-1.4 1.3-1.8 2.1-.4.7-.5 1.5-.3 2.4.1.5.3.9.5 1.2.2.3.5.5.8.6.3.1.5.2.9.2h.1c.4 0 .8-.1 1.1-.1.3 0 .6-.1 1-.2s.7-.2 1-.4c.3-.2.5-.4.7-.7.2-.3.2-.6.1-1.1 0-.1-.1-.3-.1-.5l-.3-.9c-.1-.3-.2-.6-.3-.8-.1-.3-.1-.5-.2-.6-.2-1.1.1-1.9.7-2.5.6-.5 1.4-.8 2.3-1 .5-.2.8-.2 1.1-.2zm1.9 25.6c-.5 0-1-.1-1.4-.3-.6-.3-1-.7-1.4-1.3-.3-.5-.6-1.1-.7-1.6-.1-.5-.3-1-.3-1.5-.2-1.1-.2-2 .1-2.8.2-.8.6-1.4 1.1-2 .5-.6 1.1-1.1 1.7-1.5.6-.4 1.3-.8 1.9-1.3.4-.3.7-.5.9-.8.1-.2.2-.4.3-.5v-.2l.6-.1 1.1 7.2c.2 1 .2 2 .1 2.7-.1.8-.3 1.5-.6 2s-.7 1-1.2 1.3c-.4.3-.9.5-1.4.6-.3 0-.5.1-.8.1zm2.4-12.7c-.2.3-.6.6-1 .9-.6.4-1.3.9-1.9 1.3-.6.4-1.2.9-1.6 1.4-.4.5-.8 1.1-1 1.8-.2.7-.2 1.5-.1 2.5.1.4.2.9.3 1.4.1.5.4 1 .7 1.5.3.4.7.8 1.2 1.1.5.2 1.1.3 1.8.2.4-.1.8-.2 1.2-.5.4-.3.7-.6 1-1.1.3-.5.5-1 .6-1.7.1-.7.1-1.6-.1-2.6l-1.1-6.2zM242.9 139c-1-.1-1.9-.2-2.7-.3-1.8-.4-3.1-1-3.8-1.7-.7-.8-1.1-1.8-1.1-2.9h-.1c-.8 1.3-1.8 2.1-2.9 2.4-1.1.3-2.6.3-4.4 0-.8-.1-1.7-.4-2.6-.7-.9-.3-1.6-.7-2.3-1.2-.7-.5-1.2-1.1-1.6-1.9-.4-.8-.5-1.6-.3-2.6s.5-1.8 1-2.4c.5-.6 1.2-1.1 1.9-1.5.7-.4 1.6-.6 2.5-.8.9-.2 1.8-.3 2.8-.4 1.5-.2 2.8-.3 3.8-.4 1-.1 1.8-.3 2.3-.5.6-.2 1-.5 1.3-.9.3-.4 1-3.7 1.1-4.3.2-1.3.4-1.9.6-3.2.2-.9.1-1.8-.3-2.7-.3-.9-1.2-1.4-2.6-1.7-.9-.2-1.7-.1-2.4.1-.7.3-1.1.9-1.3 1.8v3c-.1.5-.3.9-.6 1.2-.3.3-.7.4-1 .5-.4.1-.8.1-1.2 0-.4 0-.7-.1-1-.1-.4-.1-.7-.1-1.1-.3-.4-.1-.7-.3-1-.5-.3-.2-.5-.6-.6-.9-.2-.4-.2-.9-.1-1.5.1-.9.5-1.7 1.2-2.3.7-.6 1.5-1.1 2.5-1.4 1-.3 2.1-.5 3.3-.6 1.2 0 2.4 0 3.7.3 1.4.3 2.8.6 4 1.1 1.2.5 2.2 1 3.1 1.8.8.7 1.4 1.6 1.7 2.7.3 1.1.4 2.3.1 3.8-1.3 6.2-1.9 9.4-3.2 15.6-.1.7-.2 1.3-.1 1.8s.5.9 1.3 1.1c.5.1.9.1 1.2 0 .3-.1.7-.3 1-.5.2.2.2.3.4.6-.7.2-1.6.4-2.5.4zm-6.1-15.1c-.1.2-.3.4-.5.5-.2.2-.6.3-1.2.5-.7.2-1.5.4-2.2.5-.7.2-1.4.4-2.1.8-.6.4-1.2.8-1.6 1.4-.5.6-.8 1.4-1 2.5-.1.4-.1.9-.2 1.5 0 .6 0 1.1.2 1.7.1.6.4 1.1.8 1.5.4.4 1 .7 1.8.9.5.1.9.1 1.4-.1.5-.1.9-.4 1.4-.7.4-.4.8-.9 1.2-1.6.3-.7.6-1.5.8-2.5.5-2.7.8-4.1 1.3-6.9h-.1z" style="--darkreader-inline-fill:#e0deda"/><path d="M243.1 139.3h-.3c-1-.1-1.9-.2-2.7-.3-1.9-.4-3.2-1-4-1.8-.6-.7-1-1.5-1.2-2.4-.8 1-1.7 1.6-2.6 1.9-1.1.3-2.6.3-4.6 0-.9-.1-1.7-.4-2.6-.7-.9-.3-1.7-.8-2.4-1.3s-1.3-1.2-1.7-2c-.4-.8-.5-1.7-.3-2.8.2-1.1.5-1.9 1.1-2.6.6-.7 1.2-1.2 2-1.6.8-.4 1.6-.6 2.6-.8.8-.1 1.8-.3 2.8-.4.6-.1 1.2-.1 1.7-.2.8-.1 1.5-.2 2.1-.2 1-.1 1.7-.3 2.3-.5.5-.2.9-.5 1.2-.8.2-.3.9-3.3 1.1-4.2l.6-3.2c.2-.9.1-1.7-.2-2.5-.3-.8-1.1-1.2-2.3-1.5-.8-.1-1.5-.1-2.2.1-.6.2-1 .7-1.1 1.6v2.9c-.1.6-.3 1.1-.7 1.4-.3.3-.7.5-1.2.6-.4.1-.8.1-1.3.1-.4 0-.7-.1-1-.1l-1.2-.3c-.4-.1-.8-.3-1.1-.6-.3-.3-.5-.6-.7-1.1-.2-.4-.2-1-.1-1.6.2-1 .6-1.8 1.3-2.5.7-.7 1.6-1.2 2.6-1.5 1-.3 2.1-.5 3.4-.6 1.2 0 2.5 0 3.7.3 1.4.3 2.8.6 4 1.1 1.3.5 2.3 1.1 3.2 1.8.8.8 1.5 1.7 1.8 2.8.4 1.1.4 2.4.1 3.9l-3.2 15.6c-.1.6-.1 1.2-.1 1.7 0 .1.1.6 1.1.8.4.1.8.1 1 0 .3-.1.6-.3.9-.5l.3-.2.7 1.1-.2.2c-.8.6-1.6.9-2.6.9zm-8.1-5.7l.5.1.1.3c0 1.1.3 2 1 2.7.7.7 1.9 1.3 3.6 1.6.8.2 1.7.3 2.6.3.8 0 1.4-.1 2-.6l-.1-.1c-.3.2-.6.3-.9.4-.4.1-.8.1-1.4 0-.9-.2-1.4-.6-1.5-1.3-.1-.6-.1-1.2.1-1.9l3.2-15.6c.3-1.4.3-2.6-.1-3.6-.3-1-.9-1.9-1.7-2.6-.8-.7-1.8-1.3-3-1.7-1.2-.4-2.5-.8-3.9-1.1-1.2-.2-2.4-.3-3.6-.3-1.2 0-2.2.2-3.2.5-.9.3-1.7.8-2.3 1.4-.6.6-1 1.3-1.1 2.1-.1.5-.1 1 .1 1.3.1.3.3.6.5.8.2.2.5.4.9.5.4.1.7.2 1.1.3.3 0 .6.1 1 .1h1.1c.3-.1.6-.2.9-.4.2-.2.4-.5.5-1v-.8-.6V113.5v-.6c.2-1.1.7-1.8 1.5-2.1.8-.3 1.6-.3 2.5-.2 1.5.3 2.4.9 2.8 1.9.4.9.5 1.9.3 2.9l-.6 3.2s-.8 3.9-1.2 4.4c-.3.4-.8.8-1.4 1-.6.2-1.4.4-2.4.6-.6.1-1.3.2-2.1.2-.5.1-1.1.1-1.7.2-1 .1-1.9.3-2.8.4-.9.1-1.7.4-2.4.8-.7.3-1.3.8-1.8 1.4-.5.6-.8 1.3-.9 2.3-.1.9 0 1.7.3 2.4s.8 1.3 1.5 1.8 1.4.9 2.2 1.2c.8.3 1.7.5 2.5.7 1.8.3 3.3.3 4.3 0s1.9-1 2.7-2.2l.3-.2zm-3.7 2.4c-.2 0-.4 0-.6-.1-.9-.2-1.6-.5-2-1-.4-.5-.7-1-.9-1.6-.2-.6-.2-1.2-.2-1.8 0-.6.1-1.1.2-1.5.2-1.1.5-2 1-2.6.5-.6 1.1-1.1 1.7-1.5.7-.4 1.4-.7 2.1-.8.7-.2 1.5-.3 2.2-.5.7-.2 1-.3 1.1-.4.2-.1.3-.3.4-.4l.1-.2.6.1v.3l-1.3 6.9c-.2 1-.5 1.9-.8 2.6-.4.7-.8 1.3-1.3 1.7-.5.4-1 .7-1.5.8-.1-.1-.5 0-.8 0zm5.1-11.4c-.3.2-.7.4-1.3.5-.7.2-1.5.4-2.2.5-.7.2-1.4.4-2 .8-.6.3-1.1.8-1.5 1.4-.4.6-.7 1.3-.9 2.3-.1.4-.1.9-.2 1.4 0 .5 0 1.1.1 1.6s.4 1 .7 1.4c.3.4.9.7 1.6.8.4.1.8.1 1.3-.1.4-.1.8-.3 1.3-.7.4-.3.8-.8 1.1-1.5.3-.6.6-1.5.8-2.4l1.2-6z" style="--darkreader-inline-fill:#e0deda"/><g><path d="M104.2 91.7c5.6-1.6 8.4-2.3 14.1-3.7.8 8.8 1.2 13.1 2.1 21.9h.1c.4-1.5 1.1-2.7 2.1-3.5 1-.8 2.4-1.3 4.1-1.5 2.2-.2 4.1.1 5.7.8 1.6.7 3 1.6 4 2.8 1.1 1.1 1.9 2.4 2.4 3.8s.8 2.7.9 3.9c.1 1.6 0 5.9-.5 7.4s-1.3 2.8-2.2 4c-1 1.2-2.1 2.1-3.5 2.9-1.4.8-3 1.2-4.7 1.3-1.6.1-3-.2-4-.9-1.1-.7-2-1.8-2.7-3.2h-.1c.1 1.6.2 2.3.4 3.9-4 .4-6 .6-10 1.1 0-.3-.1-.4-.1-.7 1.4-.2 2.1-.3 3.5-.4-1.8-16.3-2.7-24.4-4.5-40.7-2.9.3-4.3.4-7.1.8zm17.6 32.2c.2 1.3.6 2.5 1.1 3.6.5 1.1 1.3 2 2.2 2.7.9.7 2.1 1 3.6.8 1-.1 1.8-.4 2.3-1 .6-.6 1-1.4 1.2-2.4.2-1 .4-2.2.4-3.6s-.2-5.8-.4-7.5c-.1-2.1-.3-3.9-.6-5.3-.3-1.5-.6-2.6-1.1-3.5-.5-.8-1.1-1.4-1.7-1.8-.7-.3-1.5-.5-2.5-.4-1.4.1-2.5.6-3.3 1.4-.8.8-1.3 1.8-1.6 3-.3 1.2-.5 2.4-.5 3.8 0 1.3 0 2.6.2 3.8 0 1.1.5 5.1.7 6.4z" style="--darkreader-inline-fill:#e0deda"/><path d="M112 133l-.2-1.4h.3c1.3-.2 2-.2 3.2-.4l-4.4-40c-2.5.3-3.9.4-6.7.8l-.1-.6c5.6-1.6 8.4-2.3 14.1-3.7l.4-.1 2 21.1c.4-1.1 1.1-1.9 1.9-2.6 1-.9 2.5-1.4 4.3-1.5 2.3-.2 4.2.1 5.9.8 1.7.7 3 1.7 4.1 2.8 1.1 1.2 1.9 2.5 2.5 3.9.5 1.4.9 2.8.9 4 .1 1.4 0 5.9-.5 7.5-.5 1.5-1.3 2.9-2.3 4.1-1 1.2-2.2 2.2-3.6 3-1.4.8-3 1.2-4.8 1.4-1.7.1-3.1-.2-4.2-.9-.9-.5-1.6-1.3-2.2-2.3l.3 3h-.3c-4 .4-5.9.6-10 1.1h-.6zm.5-.8v.1c3.7-.4 5.7-.7 9.4-1l-.4-3.9.5-.1.2.2c.7 1.4 1.6 2.4 2.6 3.1 1 .7 2.3.9 3.9.8 1.7-.1 3.2-.6 4.6-1.3 1.4-.7 2.5-1.7 3.4-2.8.9-1.2 1.7-2.5 2.2-3.9.5-1.4.6-5.8.5-7.3-.1-1.2-.4-2.5-.9-3.8-.5-1.4-1.3-2.6-2.3-3.7-1-1.1-2.4-2-3.9-2.7-1.6-.7-3.5-.9-5.6-.8-1.6.1-3 .6-3.9 1.4-.9.8-1.6 1.9-2 3.4l-.1.2h-.5l-.1-.3-2-21.5c-3.9 1-6.5 1.6-9.7 2.5.9-.1 1.8-.2 2.9-.3h.3l4.6 41.3h-.3c-1.4.2-2.1.2-3.4.4zm15.5-.8c-1.3 0-2.3-.3-3.2-.9-.9-.7-1.7-1.7-2.3-2.8-.6-1.1-.9-2.4-1.2-3.7-.2-1.3-.6-5.4-.7-6.4-.1-1.2-.2-2.4-.2-3.8s.2-2.7.5-3.8c.3-1.2.9-2.3 1.7-3.1.8-.9 2-1.4 3.5-1.5 1-.1 1.9.1 2.7.4.7.4 1.4 1 1.9 1.9.5.9.9 2.1 1.2 3.6.3 1.5.5 3.2.6 5.4.1 1.6.4 6.1.4 7.5 0 1.4-.1 2.6-.4 3.7-.3 1.1-.7 1.9-1.3 2.5-.6.6-1.5 1-2.5 1.1-.2-.1-.4-.1-.7-.1zm-1.2-25.5h-.5c-1.3.1-2.4.5-3.1 1.3-.7.8-1.3 1.7-1.5 2.8-.3 1.1-.5 2.4-.5 3.7 0 1.4 0 2.6.2 3.7.1 1 .5 5.1.7 6.4.2 1.3.6 2.4 1.1 3.5.5 1 1.2 1.9 2.1 2.6.7.5 1.6.8 2.8.8h.6c.9-.1 1.6-.4 2.1-.9s.9-1.3 1.1-2.2c.2-1 .3-2.2.3-3.5 0-1.3-.2-5.6-.4-7.5-.1-2.1-.3-3.9-.6-5.3s-.6-2.5-1.1-3.4c-.4-.8-1-1.3-1.6-1.7-.4-.2-1-.3-1.7-.3z" style="--darkreader-inline-fill:#e0deda"/></g><g><path d="M139.3 88.6c5.7-1.1 8.5-1.6 14.3-2.6.1 8.8.2 13.2.3 22h.1c.5-1.5 1.3-2.6 2.4-3.4 1.1-.7 2.5-1.1 4.2-1.1 2.2 0 4.1.4 5.7 1.2 1.6.8 2.8 1.8 3.8 3.1 1 1.2 1.7 2.6 2.1 4 .4 1.4.6 2.8.6 4 0 1.6-.5 5.9-1.1 7.3-.6 1.4-1.5 2.7-2.5 3.8-1.1 1.1-2.3 2-3.8 2.6-1.4.7-3 1-4.8 1-1.6 0-2.9-.4-4-1.2-1-.8-1.8-1.9-2.4-3.4h-.1c0 1.6 0 2.3.1 3.9-4 .1-6 .1-10 .3v-.7c1.4-.1 2.1-.1 3.6-.1-.5-16.4-.8-24.5-1.3-40.9-2.9 0-4.3.1-7.2.2zm15 33.5c.1 1.3.4 2.6.8 3.7s1.1 2.1 2 2.8c.9.8 2 1.1 3.5 1.1 1 0 1.8-.3 2.4-.8.6-.5 1.1-1.3 1.4-2.3.3-1 .5-2.2.6-3.6.1-1.4.2-5.8.2-7.5 0-2.1 0-3.9-.2-5.4-.2-1.5-.4-2.6-.8-3.5-.4-.9-.9-1.5-1.6-1.9-.6-.4-1.5-.6-2.5-.6-1.4 0-2.5.4-3.4 1.1-.8.7-1.4 1.7-1.9 2.8-.4 1.1-.7 2.4-.8 3.7-.1 1.3-.2 2.6-.1 3.8.2 1.3.3 5.3.4 6.6z" style="--darkreader-inline-fill:#e0deda"/><path d="M160.6 130.8c-1.7 0-3.1-.4-4.2-1.2-.8-.6-1.5-1.4-2-2.4v3h-.3c-4 .1-5.9.1-10 .3h-.3l-.1-1.4h.3c1.3-.1 2-.1 3.3-.1l-1.2-40.3c-2.7.1-4.1.1-6.8.3l-.1-.6c5.8-1.1 8.6-1.7 14.3-2.6l.4-.1.3 21.1c.5-1 1.2-1.8 2.1-2.4 1.1-.8 2.6-1.2 4.4-1.2 2.3 0 4.2.4 5.8 1.3 1.6.8 2.9 1.9 3.9 3.1 1 1.2 1.7 2.6 2.2 4.1.4 1.4.6 2.8.6 4.1 0 1.4-.5 5.9-1.1 7.4-.6 1.5-1.5 2.8-2.6 3.9s-2.4 2-3.8 2.7c-1.6.7-3.3 1-5.1 1zm-6.8-5.2h.6l.1.2c.6 1.4 1.4 2.5 2.3 3.3 1 .7 2.2 1.1 3.8 1.1v.3-.3c1.7 0 3.3-.3 4.6-.9 1.4-.6 2.6-1.5 3.7-2.5 1-1.1 1.9-2.3 2.5-3.7.6-1.4 1-5.7 1.1-7.2 0-1.2-.2-2.5-.6-3.9-.4-1.4-1.1-2.7-2-3.9-.9-1.2-2.2-2.2-3.7-3-1.5-.8-3.4-1.2-5.5-1.2-1.7 0-3 .4-4 1.1-1 .7-1.8 1.8-2.3 3.2l-.1.2h-.5l-.1-.3-.3-21.6c-4 .7-6.5 1.1-9.8 1.7.9 0 1.8-.1 2.9-.1h.3l1.3 41.5h-.3c-1.3 0-2 .1-3.2.1v.1c3.8-.1 5.7-.2 9.4-.3l-.2-3.9zm6.8 4.5c-1.6 0-2.8-.4-3.8-1.2-.9-.8-1.6-1.8-2-3-.5-1.2-.7-2.4-.9-3.8-.1-1.4-.2-5.4-.2-6.5 0-1.2 0-2.5.1-3.8.1-1.4.4-2.7.8-3.8.4-1.2 1.1-2.2 1.9-3 .9-.8 2.1-1.2 3.6-1.2 1 0 1.9.2 2.6.6.7.4 1.3 1.1 1.7 2.1.4.9.7 2.1.9 3.6.2 1.5.2 3.2.2 5.4 0 1.8-.1 6.1-.2 7.5-.1 1.4-.3 2.6-.7 3.6-.3 1-.8 1.8-1.5 2.4-.5.8-1.4 1.1-2.5 1.1zm-.4-25.5c-1.3 0-2.4.4-3.2 1-.8.7-1.4 1.6-1.8 2.7-.4 1.1-.6 2.3-.8 3.6-.1 1.3-.2 2.5-.1 3.7 0 1.1.1 5.1.2 6.4.1 1.3.4 2.5.8 3.6s1.1 2 1.9 2.7c.8.7 1.9 1 3.3 1 .9 0 1.7-.2 2.2-.7.6-.5 1-1.2 1.3-2.1.3-1 .5-2.1.6-3.5.1-1.4.2-5.7.2-7.5 0-2.2 0-3.9-.2-5.3-.1-1.4-.4-2.6-.8-3.4-.4-.8-.9-1.4-1.5-1.8-.4-.2-1.2-.4-2.1-.4z" style="--darkreader-inline-fill:#e0deda"/></g><g><path d="M184.2 119.6c-.1 1.3-.1 2.6-.1 3.8 0 1.3.3 2.5.7 3.5.4 1.1 1 2 1.9 2.7.9.7 2.1 1.2 3.7 1.3 1.4.1 2.7-.1 3.7-.5s1.9-1 2.6-1.6c.7-.6 1.2-1.3 1.6-1.9.4-.6.6-1.1.7-1.4.3.1.4.2.7.3-.2.6-.6 1.3-1.1 2-.5.7-1.2 1.4-2 1.9-.8.6-1.8 1-2.9 1.4-1.1.3-2.5.5-4.1.3-1.9-.1-3.6-.5-5.2-1.2-1.6-.6-2.9-1.5-4.1-2.6-1.2-1.1-2-2.4-2.7-3.9-.6-1.5-.9-3.2-.8-5.2.1-1.5-.3-3.3 1.3-7.2.6-1.5 1.7-2.7 3-3.7 1.2-1 2.7-1.9 4.4-2.5 1.7-.6 3.4-.8 5.3-.7 1.3.1 2.7.4 4 .9 1.3.5 2.5 1.2 3.4 2.1 1 .9 1.8 2 2.3 3.4.6 1.4.7 2.9.6 4.7-6.6-.7-9.9-.9-16.5-1.3-.2 2.3-.3 3.3-.4 5.4zm9.6-8.8c0-.4 0-.9.1-1.4 0-.6-.1-1.1-.3-1.7-.2-.6-.5-1.1-1-1.5-.5-.4-1.2-.7-2.1-.7-1.3-.1-2.3.1-3.1.6-.7.5-1.3 1.2-1.7 2-.4.8-.7 1.8-.8 2.8-.2 1-.3 2-.4 2.9 3.6.2 5.4.3 9 .6.1-1.5.2-2.2.3-3.6z" style="--darkreader-inline-fill:#e0deda"/><path d="M190.7 131.9h-1.2c-1.9-.1-3.7-.5-5.3-1.2-1.6-.7-3-1.6-4.2-2.7-1.2-1.1-2.1-2.5-2.7-4-.6-1.6-.9-3.4-.9-5.3v-.8c0-1.4 0-3.2 1.3-6.5.5-1.3 1.5-2.5 3.1-3.8 1.3-1.1 2.8-1.9 4.5-2.5 1.7-.6 3.5-.8 5.4-.7 1.4.1 2.7.4 4 .9 1.3.5 2.5 1.2 3.5 2.2 1 .9 1.8 2.1 2.4 3.5.6 1.4.8 3 .6 4.9v.3h-.3c-6.5-.6-9.7-.9-16.2-1.3l-.3 4.9c-.1 1.2-.1 2.5-.1 3.8 0 1.2.2 2.4.6 3.4.4 1 1 1.9 1.8 2.6.8.7 2 1.1 3.5 1.2 1.4.1 2.6-.1 3.5-.5 1-.4 1.8-1 2.5-1.6.7-.6 1.2-1.2 1.5-1.8.4-.6.6-1.1.6-1.3l.1-.4 1.4.6.2.2c-.3.7-.7 1.4-1.2 2.1-.5.7-1.2 1.4-2.1 2-.8.6-1.9 1.1-3 1.4-.9.3-1.9.4-3 .4zm-1-27c-1.5 0-2.9.2-4.2.7-1.6.6-3.1 1.4-4.3 2.4-1.5 1.2-2.4 2.4-2.9 3.6-1.3 3.1-1.3 4.9-1.3 6.2v.9c-.1 1.8.2 3.5.8 5 .6 1.5 1.5 2.8 2.6 3.8 1.1 1.1 2.5 1.9 4 2.6 1.5.6 3.2 1 5.1 1.1.6 0 1.2.1 1.7 0h-.9c-1.7-.1-3-.6-3.9-1.4-.9-.8-1.6-1.7-2-2.8-.4-1.1-.6-2.3-.7-3.6 0-1.3 0-2.6.1-3.9l.3-5.5h.3c6.6.4 9.8.6 16.2 1.3.1-1.6-.1-3-.6-4.3-.5-1.3-1.3-2.4-2.2-3.3-1-.9-2.1-1.6-3.3-2-1.3-.5-2.6-.8-3.9-.9-.2.1-.6.1-.9.1zm9.4 21.1c-.1.3-.3.7-.6 1.2-.4.7-.9 1.3-1.7 2-.6.5-1.3 1-2.2 1.4.6-.3 1.2-.6 1.7-.9.8-.6 1.4-1.2 1.9-1.9.4-.6.7-1.2 1-1.7l-.1-.1zm-5.3-11.4h-.3c-3.7-.3-5.4-.4-9-.6h-.3v-.3c.1-.9.2-1.8.4-2.9.2-1 .4-2 .8-2.9.4-.9 1-1.6 1.8-2.2.8-.6 1.9-.8 3.3-.7 1 .1 1.8.3 2.3.8.5.5.9 1 1.1 1.7.2.6.3 1.2.3 1.8 0 .6 0 1.1-.1 1.4l-.3 3.9zm-8.9-1.2c3.2.2 5 .3 8.3.6l.3-3.2c0-.4 0-.8.1-1.4 0-.5-.1-1.1-.2-1.6-.2-.5-.5-1-.9-1.4-.4-.4-1.1-.6-1.9-.7-1.2-.1-2.2.1-2.8.6-.7.5-1.2 1.1-1.6 1.9-.4.8-.6 1.7-.8 2.7-.3.9-.4 1.7-.5 2.5z" style="--darkreader-inline-fill:#e0deda"/></g><g><path d="M257.4 130.6c-.3 1.2-.6 2.5-.8 3.8-.2 1.3-.2 2.5 0 3.6s.7 2.1 1.4 3c.7.9 1.9 1.5 3.4 1.9 1.4.4 2.7.4 3.8.2 1.1-.2 2.1-.6 2.9-1.1.8-.5 1.4-1 1.9-1.6.5-.6.8-1 .9-1.3.3.2.4.3.7.5-.4.6-.9 1.2-1.5 1.8-.6.6-1.4 1.1-2.3 1.5-.9.4-2 .7-3.2.8-1.2.1-2.6 0-4.1-.4-1.8-.5-3.5-1.2-4.9-2.1-1.5-.9-2.6-2-3.6-3.3-.9-1.3-1.6-2.7-1.9-4.4-.3-1.6-.3-3.4.1-5.2.3-1.5.3-3.3 2.6-6.8.9-1.3 2.2-2.3 3.6-3.1 1.4-.8 3-1.4 4.8-1.6 1.8-.3 3.5-.2 5.4.3 1.3.3 2.6.9 3.8 1.6 1.2.7 2.2 1.6 3 2.7.8 1.1 1.4 2.3 1.7 3.7.3 1.4.2 3-.3 4.7-6.4-1.8-9.6-2.7-16.1-4.3-.6 2.1-.8 3.1-1.3 5.1zm11-7c.1-.4.2-.8.3-1.4.1-.6.1-1.1 0-1.7-.1-.6-.3-1.2-.7-1.7-.4-.5-1.1-.9-1.9-1.1-1.3-.3-2.3-.3-3.1.1-.8.4-1.5.9-2 1.7-.5.8-1 1.6-1.3 2.6-.3 1-.6 1.9-.9 2.8 3.5.9 5.3 1.3 8.8 2.2.3-1.4.5-2.1.8-3.5z" style="--darkreader-inline-fill:#e0deda"/><path d="M263.7 144.1c-1 0-2.1-.2-3.3-.5-1.8-.5-3.5-1.2-5-2.1-1.5-.9-2.7-2.1-3.7-3.4-1-1.3-1.6-2.8-2-4.5-.4-1.7-.3-3.5.1-5.4.1-.3.1-.5.2-.8.2-1.3.5-3.2 2.5-6.1.8-1.2 2-2.2 3.7-3.2 1.5-.8 3.1-1.4 4.9-1.7 1.8-.3 3.6-.2 5.5.3 1.3.3 2.6.9 3.8 1.6 1.2.7 2.3 1.7 3.1 2.8.8 1.1 1.4 2.4 1.7 3.9.3 1.5.2 3.1-.3 4.9l-.1.3-.3-.1c-6.3-1.8-9.5-2.6-15.8-4.2l-1.2 4.7c-.3 1.2-.6 2.5-.8 3.7-.2 1.2-.2 2.4 0 3.5s.6 2 1.3 2.9c.7.8 1.8 1.4 3.3 1.8.8.2 1.6.3 2.3.3.5 0 .9 0 1.3-.1 1.1-.2 2-.6 2.8-1.1.8-.5 1.4-1 1.9-1.5.6-.7.8-1 .9-1.2l.1-.4 1.2.9-.2.3c-.4.6-.9 1.2-1.5 1.9-.6.6-1.5 1.2-2.4 1.6-.9.4-2 .7-3.3.9h-.7zm-.6-27.2c-.6 0-1.3.1-1.9.2-1.7.3-3.3.8-4.7 1.6-1.7 1-2.8 1.9-3.5 3-1.9 2.8-2.1 4.5-2.4 5.9-.1.3-.1.6-.2.8-.4 1.8-.4 3.5-.1 5.1.3 1.6 1 3 1.9 4.2.9 1.3 2.1 2.3 3.5 3.2 1.4.9 3 1.6 4.8 2 .6.2 1.2.3 1.7.3-.3-.1-.6-.1-.9-.2-1.6-.4-2.8-1.1-3.6-2-.7-.9-1.2-2-1.5-3.1-.2-1.2-.2-2.4 0-3.7.2-1.3.5-2.5.8-3.8l1.3-5.3.3.1c6.5 1.6 9.6 2.4 15.8 4.2.4-1.6.5-3 .2-4.3-.3-1.4-.8-2.6-1.6-3.6s-1.8-1.9-2.9-2.6c-1.2-.7-2.4-1.2-3.7-1.6-1.1-.2-2.2-.4-3.3-.4zm7.9 22.6c-.2.3-.4.6-.8 1-.5.6-1.2 1.1-2 1.6-.7.4-1.5.8-2.4 1 .7-.1 1.3-.3 1.8-.6.9-.4 1.6-.9 2.2-1.5.5-.5 1-1 1.3-1.5h-.1zm-3.2-12l-.3-.1c-3.5-.9-5.2-1.4-8.8-2.2l-.3-.1.1-.3c.2-.9.5-1.8.9-2.8.3-1 .8-1.9 1.3-2.7.6-.8 1.3-1.4 2.2-1.8.9-.4 2-.4 3.4-.1 1 .2 1.7.7 2.1 1.2.4.6.7 1.2.8 1.8.1.6.1 1.3-.1 1.8-.1.6-.2 1-.3 1.4l-1 3.9zm-8.6-2.9c3.3.8 5 1.2 8.2 2.1l.8-3.1c.1-.4.2-.8.3-1.4.1-.5.1-1.1 0-1.6-.1-.6-.3-1-.7-1.5-.4-.5-1-.8-1.8-1-1.2-.3-2.2-.3-2.9.1-.8.3-1.4.9-1.9 1.6-.5.7-.9 1.6-1.3 2.5-.3.7-.5 1.5-.7 2.3z" style="--darkreader-inline-fill:#e0deda"/></g><g><path d="M219.2 90c-2.3 17.1-3.4 25.6-5.7 42.7 1.4.2 2.2.3 3.6.5 0 .3-.1.4-.1.7-5.5-.8-8.2-1.1-13.7-1.7 0-.3 0-.4.1-.7 1.4.2 2.2.2 3.6.4 1.9-16.3 2.9-24.4 4.8-40.6-2.8-.3-4.3-.5-7.1-.8 5.7-.4 8.6-.5 14.5-.5z" style="--darkreader-inline-fill:#e0deda"/><path d="M217.2 134.2h-.3c-5.5-.8-8.2-1.1-13.7-1.7h-.3l.1-1.4h.3c1.3.1 2.1.2 3.3.4 1.9-15.9 2.8-24.1 4.7-40-2.6-.3-4-.5-6.8-.7v-.6c5.9-.3 8.7-.4 14.6-.4h.4l-5.8 42.7c1.2.2 2 .3 3.3.5h.3l-.1 1.2zm-13.6-2.3c5.2.6 7.9.9 13.1 1.7v-.1c-1.2-.2-2-.3-3.3-.5h-.3l5.7-42.6c-4.1.1-6.7.1-10.1.2.9.1 1.8.2 2.9.3h.3v.3c-1.9 16.3-2.9 24.4-4.8 40.6v.3h-.3c-1.3-.2-2.1-.2-3.3-.4l.1.2z" style="--darkreader-inline-fill:#e0deda"/></g></g><path fill="#090A0F" d="M185.2 16.6c-.3 1.8-.9 3.5-1.6 5.2-.7 1.7-1.6 3.2-2.5 4.8-1.6 2.7-3.3 5.3-5.1 7.9-.2-.2-.3-.5-.5-.7-.4-.5-.7-1-1.1-1.6-1.2-1.7-2.3-3.5-3.3-5.3 1.6-2.4 3.1-5 4.3-7.6.8-1.7 1.5-3.4 2-5.2.5-1.8.9-3.7.6-5.6-.3 1.8-.9 3.5-1.6 5.2-.7 1.7-1.6 3.2-2.5 4.8-1.3 2.1-2.6 4.2-4 6.3-.3.5-.7 1-1 1.5 0 0 0 .1-.1.1-.4-.6-.9-1.2-1.3-1.9-.3-.4-.6-.9-.9-1.3-1-1.5-2-3.1-2.9-4.7-.4-.7-.8-1.5-1.2-2.2 1.3-1.4 2.4-3 3.5-4.6.8-1.3 1.5-2.5 2.1-3.9.5-1.4 1-2.9.8-4.3-.2 1.4-.9 2.7-1.7 3.9-.7 1.2-1.6 2.4-2.5 3.5-1 1.2-2.1 2.5-3.2 3.7-.3.3-.6.7-.9 1-.3.3-.6.7-1 1l-1.2-1.2c-.3-.3-.6-.7-.9-1-1-1.1-2-2.3-3-3.5-.9-1.1-1.8-2.3-2.5-3.5-.8-1.2-1.4-2.5-1.7-3.9-.2 1.5.3 3 .8 4.3.6 1.4 1.3 2.7 2.1 3.9 1 1.5 2.1 3 3.3 4.4-.4.8-.9 1.6-1.4 2.5-.9 1.5-1.8 2.9-2.7 4.4-.3.4-.6.9-.9 1.3-.3.5-.7 1-1 1.5-.2.2-.3.5-.5.7-.3-.4-.6-.9-.9-1.4-1.5-2.1-2.9-4.3-4.2-6.5-.9-1.6-1.8-3.2-2.5-4.8-.8-1.6-1.4-3.4-1.7-5.2-.2 1.9.2 3.7.6 5.6.5 1.8 1.2 3.6 2 5.2 1.3 2.7 2.8 5.3 4.5 7.8-1.1 1.8-2.2 3.6-3.4 5.3-.4.5-.7 1.1-1.1 1.6-.1.1-.2.3-.3.4-1.8-2.5-3.5-5.2-5.1-7.9-.9-1.6-1.8-3.2-2.5-4.8-.8-1.6-1.4-3.4-1.7-5.2-.2 1.9.2 3.7.6 5.6.5 1.8 1.2 3.6 2 5.2 1.6 3.4 3.5 6.6 5.7 9.6l.9 1.2.9-1.2c.2-.3.4-.5.5-.8 1.3 2.5 2.9 5 4.6 7.3l.9 1.2.9-1.2c.1-.2.2-.3.3-.5.5 1.3 1 2.6 1.6 3.9 1.6 3.4 3.5 6.6 5.7 9.6l.9 1.2.9-1.2c2.2-3.1 4.1-6.2 5.7-9.6.6-1.2 1.1-2.4 1.5-3.6 0 .1.1.1.1.2l.9 1.2.9-1.2c1.7-2.4 3.3-5 4.7-7.6.2.3.5.7.7 1l.9 1.2.9-1.2c2.2-3.1 4.1-6.2 5.7-9.6.8-1.7 1.5-3.4 2-5.2.9-1.8 1.3-3.7 1.1-5.5zm-28.3 2.7c.3-.7.6-1.4.9-2 .4.4.8.9 1.2 1.3l.7.7.7-.7c.4-.4.7-.7 1-1.1.3.6.5 1.2.8 1.8 1 2.1 2.1 4.1 3.3 6-.2.4-.5.9-.7 1.3-.8 1.3-1.6 2.7-2.5 4-.3.5-.6 1-.9 1.4-.5.8-1.1 1.6-1.7 2.4-.6-.9-1.2-1.8-1.9-2.7-.3-.5-.6-.9-.9-1.4-.8-1.2-1.6-2.5-2.3-3.7l-.9-1.5c1.2-1.9 2.2-3.8 3.2-5.8zM146 34.5c1.2-1.8 2.3-3.7 3.3-5.7l.1.1.9 1.2.9-1.2c.5-.8 1.1-1.5 1.6-2.3.1.2.2.5.3.7.8 1.7 1.7 3.4 2.7 5-.1.2-.3.5-.4.7-1.3 2.2-2.6 4.3-4.1 6.4-.2.3-.4.6-.6.8-.1.2-.3.4-.5.6-1.4-1.9-2.9-4.1-4.2-6.3zm18.8 11.7c-1.6 2.7-3.3 5.3-5.1 7.9-1.8-2.5-3.5-5.2-5.1-7.9-.8-1.4-1.6-2.9-2.3-4.3 1.7-2.5 3.2-5.1 4.5-7.8.6 1 1.3 2 2 2.9l.9 1.2.9-1.2 1.8-2.7c1.3 2.7 2.8 5.3 4.5 7.8-.7 1.4-1.4 2.8-2.1 4.1zm4-5.2c-.1-.1-.2-.2-.2-.3l-.6-.9c-1.5-2.2-2.9-4.4-4.3-6.7-.1-.2-.2-.3-.3-.5 1-1.7 2-3.5 2.9-5.3.1-.2.1-.3.2-.5.5.7.9 1.4 1.4 2l.9 1.2.9-1.2c.1-.1.2-.3.3-.4 1 2 2.1 3.9 3.3 5.7-1.5 2.4-3 4.7-4.5 6.9z" style="--darkreader-inline-fill:#e0deda"/><path fill="#090A0F" d="M159.7 66.8c-4.5-4.7-8.8-9.6-13.2-14.4-2.2-2.4-4.4-4.8-6.5-7.2l-6.5-7.3-.1-.2-.1-.3c-2.5-7.7-5-15.4-7.4-23.2l-.4-1.2 1.1-.7c6.6-4 13.1-8 19.7-12l.4-.3h.5c8.3 0 16.6-.1 24.9 0h.5l.4.3c6.6 3.9 13.1 8 19.7 12l1.1.7-.4 1.2c-2.4 7.8-4.9 15.5-7.4 23.2l-.1.3-.1.2c-4.3 4.9-8.6 9.8-13 14.6-4.3 4.7-8.7 9.5-13.1 14.3 4-5.2 8-10.2 12.1-15.3 4-5.1 8.2-10.1 12.3-15.2l-.2.4c2.2-7.8 4.2-15.7 6.5-23.5l.7 1.9c-6.6-3.9-13.3-7.7-19.9-11.7l1 .3c-8.3.1-16.6 0-24.9 0l1-.3c-6.6 3.9-13.2 7.8-19.9 11.7l.7-1.9c2.3 7.8 4.3 15.6 6.5 23.5l-.2-.4 6.2 7.6c2.1 2.5 4.1 5.1 6.1 7.6 3.9 5 8 10.1 12 15.3z" style="--darkreader-inline-fill:#e0deda"/><g fill="#231F20"><path d="M97.2 174c-.6.2-1.8.5-3.1.5-1.5 0-2.8-.4-3.8-1.2-.9-.8-1.4-2-1.4-3.5 0-2.8 2.1-4.8 5.5-4.8 1.2 0 2.1.2 2.5.4l-.3 1c-.5-.2-1.2-.4-2.3-.4-2.5 0-4.1 1.4-4.1 3.8s1.6 3.8 3.9 3.8c.9 0 1.5-.1 1.8-.2v-2.8h-2.1v-1h3.4v4.4zM103.7 165.1v3.9h4.9v-3.9h1.3v9.3h-1.3V170h-4.9v4.4h-1.3v-9.3h1.3zM120.7 170.1h-4v3.4h4.4v1h-5.7v-9.3h5.5v1h-4.2v2.9h4v1zM126.1 174.5v-9.3h1.4l3.3 4.7c.8 1.1 1.3 2.1 1.8 3-.1-1.2-.2-2.4-.2-3.8v-3.9h1.2v9.3h-1.3l-3.2-4.7c-.7-1-1.4-2.1-1.9-3.1.1 1.2.1 2.3.1 3.8v4h-1.2zM140.6 166.2h-3.1v-1h7.5v1h-3.1v8.3h-1.3v-8.3zM144.3 176.2c.3-.8.7-2.3.9-3.3l1.5-.1c-.3 1.2-1 2.7-1.4 3.4h-1zM154.8 165.3c.6-.1 1.5-.2 2.4-.2 1.3 0 2.2.2 2.8.7.5.4.8.9.8 1.6 0 .9-.7 1.7-1.7 2 1 .2 2.1 1 2.1 2.3 0 .8-.3 1.4-.9 1.9-.7.6-1.9.9-3.5.9-.9 0-1.6-.1-2-.1v-9.1zm1.3 3.8h1.2c1.4 0 2.2-.7 2.2-1.6 0-1.1-.9-1.5-2.2-1.5-.6 0-1 0-1.2.1v3zm0 4.5c.3 0 .6.1 1.1.1 1.4 0 2.6-.5 2.6-1.8s-1.2-1.8-2.6-1.8h-1.1v3.5zM171.4 170.1h-4v3.4h4.4v1h-5.7v-9.3h5.5v1h-4.2v2.9h4v1zM176.8 165.1h1.3v8.3h4.4v1h-5.7v-9.3zM194.9 174c-.6.2-1.8.5-3.1.5-1.5 0-2.8-.4-3.8-1.2-.9-.8-1.4-2-1.4-3.5 0-2.8 2.1-4.8 5.5-4.8 1.2 0 2.1.2 2.5.4l-.3 1c-.5-.2-1.2-.4-2.3-.4-2.5 0-4.1 1.4-4.1 3.8s1.6 3.8 3.9 3.8c.9 0 1.5-.1 1.8-.2v-2.8h-2.1v-1h3.4v4.4zM201.4 165.1v9.3h-1.3v-9.3h1.3zM208.3 165.1v5.5c0 2.1 1 3 2.4 3 1.5 0 2.5-.9 2.5-3v-5.5h1.3v5.4c0 2.9-1.6 4-3.9 4-2.1 0-3.7-1.1-3.7-4V165h1.4zM228.5 170.4c-.1-1.3-.2-2.9-.2-4-.3 1.1-.8 2.3-1.3 3.5l-1.8 4.5h-1l-1.6-4.4c-.5-1.3-.9-2.5-1.2-3.6 0 1.2-.1 2.7-.2 4.1l-.3 4h-1.3l.7-9.3h1.7l1.7 4.5c.4 1.1.8 2.2 1 3.1.3-.9.6-2 1.1-3.1l1.8-4.5h1.7l.6 9.3h-1.3l-.1-4.1z" style="--darkreader-inline-fill:#d3cfca"/></g><g fill="#231F20"><path d="M145.6 202c.6-.1 1.5-.2 2.4-.2 1.3 0 2.2.2 2.8.7.5.4.8.9.8 1.6 0 .9-.7 1.7-1.7 2 1 .2 2.1 1 2.1 2.3 0 .8-.3 1.4-.9 1.9-.7.6-1.9.9-3.5.9-.9 0-1.6-.1-2-.1V202zm1.4 3.8h1.2c1.4 0 2.2-.7 2.2-1.6 0-1.1-.9-1.5-2.2-1.5-.6 0-1 0-1.2.1v3zm0 4.5c.3 0 .6.1 1.1.1 1.4 0 2.6-.5 2.6-1.8s-1.2-1.8-2.6-1.8H147v3.5zM159.1 206.9h-4v3.4h4.4v1h-5.7V202h5.5v1h-4.2v2.9h4v1zM166.6 206.9h-4v3.4h4.4v1h-5.7V202h5.5v1h-4.2v2.9h4v1zM168.7 202c.7-.1 1.6-.2 2.5-.2 1.4 0 2.3.2 2.9.8.5.4.8 1.1.8 1.8 0 1.2-.8 2-1.9 2.4.8.2 1.3.9 1.5 1.9.3 1.3.6 2.2.8 2.6H174c-.2-.3-.4-1.1-.7-2.2-.3-1.3-.8-1.8-2-1.8H170v4h-1.3V202zm1.3 4.3h1.3c1.4 0 2.3-.7 2.3-1.8 0-1.2-1-1.7-2.3-1.7-.6 0-1.1.1-1.3.1v3.4z" style="--darkreader-inline-fill:#d3cfca"/></g></svg>