<svg width="227" height="201" viewBox="0 0 227 201" fill="none" xmlns="http://www.w3.org/2000/svg">
<path opacity="0.8" fill-rule="evenodd" clip-rule="evenodd" d="M126.338 15.8956C168.368 16.6041 210.164 36.4559 222.988 76.5135C235.675 116.145 212.896 156.352 179.041 180.522C146.196 203.97 103.189 208.458 69.6919 185.952C31.8689 160.541 4.71266 116.325 19.1184 73.0772C33.2766 30.573 81.5695 15.141 126.338 15.8956Z" fill="#0D7A5F"/>
<path opacity="0.5" fill-rule="evenodd" clip-rule="evenodd" d="M106.664 2.59302C155.126 2.59302 201.587 34.1122 201.587 82.6509C201.587 137.893 161.819 187.393 106.664 187.393C49.1541 187.393 2.98047 140.252 2.98047 82.6509C2.98047 31.4436 55.5377 2.59302 106.664 2.59302Z" stroke="#0D7A5F" stroke-width="4"/>
</svg>
