<svg id="Calque_1" data-name="Calque 1" xmlns="http://www.w3.org/2000/svg" viewBox="0 0 414 324"><defs><style>.cls-1{fill:#0d7a5f}</style></defs><g id="logo"><g id="logo-2" data-name="logo"><path class="cls-1" d="M23 259.51q5.68-5.2 8.64-5.2t8.64 5.2q5.68 5.21 7 8.56.89 2.32.88 10.48v32.72h-11v-12h-11v12h-11v-32.72c0-5.44.3-8.93.88-10.48q1.33-3.36 6.96-8.56zm3.12 19v11.12h11v-11.08q0-6.56-.64-8a10.82 10.82 0 00-2.2-3.12 4.18 4.18 0 00-2.68-1.64 4.2 4.2 0 00-2.6 1.6 11 11 0 00-2.2 3.12c-.42.99-.64 3.67-.64 8.04zM85.68 311.27H75.12v-29.76a4.22 4.22 0 00-1.44-2.84 3.88 3.88 0 00-2.44-1.48q-1 0-3.24 1.92v32.16H57.44v-27.6a16.53 16.53 0 00-1-6.32 10.16 10.16 0 00-3-3.92l8.8-6.16a16.59 16.59 0 013.92 4.56q5.2-4.63 7.2-4.64c.8 0 2.11.59 3.92 1.76a24.88 24.88 0 015 4.24q6.32-6 8.76-6t7.36 4.44q4.92 4.44 4.92 8.76v15.44a16.53 16.53 0 001 6.32 10.16 10.16 0 003 3.92l-8.8 6.16q-5.76-4.56-5.76-13v-17.72a4.22 4.22 0 00-1.44-2.84 3.9 3.9 0 00-2.36-1.48c-.61 0-1.75.67-3.4 2a6.37 6.37 0 01.16 1.2zM141.28 268.15V301q.48 2.81 3.76 5l-7.2 6.16a14.08 14.08 0 01-2.56-2.56 23.61 23.61 0 01-2.56-3.76q-6.65 6.48-9.28 6.48-1.92 0-6.2-4.24t-5.32-6.88q-1-2.64-1-11.4t1-11.4q1-2.64 5.32-6.88t6.2-4.24q2.81 0 9 5.76l1-4.8zm-11.12 12.2a6.45 6.45 0 00-2.28-2.08 5.7 5.7 0 00-2.6-1.08 2.78 2.78 0 00-1.88 1 5.61 5.61 0 00-1.32 1.92c-.69 1-1 4.14-1 9.56s.35 8.6 1 9.56a6.51 6.51 0 001.32 1.88 2.74 2.74 0 001.88 1.08 5.7 5.7 0 002.6-1.08 6.76 6.76 0 002.24-2q.52-.88.6-9.36t-.56-9.4zM177.2 298.31q0 2.47-6.16 8.2t-9.16 5.72q-3 0-7.44-3a19.7 19.7 0 01-6.6-7l8.24-5.68c2.67 3.73 4.61 5.6 5.84 5.6a6.37 6.37 0 003.36-1.36c1.33-.91 2-1.76 2-2.56 0-.21-.64-.68-1.92-1.4s-2.84-1.63-4.68-2.72a60.33 60.33 0 01-5.48-3.68 19.45 19.45 0 01-4.64-5 10.91 10.91 0 01-1.92-6q0-3 5.44-7.68t8.36-4.64q2.92 0 7.36 3a19.62 19.62 0 016.6 7l-8.24 5.68c-2.67-3.73-4.61-5.6-5.84-5.6a4.2 4.2 0 00-2.36 1.08c-.93.72-1.4 1.37-1.4 2s1 1.49 2.92 2.72 4.08 2.49 6.4 3.8a26.31 26.31 0 016.4 5.12 9.5 9.5 0 012.92 6.4zM213.12 258.47q5.28-4.16 8-4.16t8.44 5.24q5.72 5.24 7.08 8.52.88 2.08.88 10.48V288q0 8.4-.88 10.48-1.44 3.12-7 8t-8.64 4.79h-16.6V277q0-6.48-.92-9.12a21.82 21.82 0 00-3.88-6.24l10.56-7.36a10.39 10.39 0 012.96 4.19zm7.84 7.28a14.76 14.76 0 00-5.76 1.52 39.67 39.67 0 01.24 5.12v29.2H221a4.22 4.22 0 002.68-1.64 11 11 0 002.2-3.12q.65-1.49.64-8v-10.28q0-6.56-.64-8a11 11 0 00-2.2-3.12 4.18 4.18 0 00-2.68-1.68zM273.84 289.59v2.88h-19.36a19.71 19.71 0 001.2 7.6 6.17 6.17 0 001.44 2 3.09 3.09 0 002.16 1c.75 0 1.68-.64 2.8-1.92a14.1 14.1 0 002.64-4.64l8.24 5.84a19.7 19.7 0 01-6.6 7q-4.44 3-7.16 3t-7.88-4.35q-5.16-4.25-6.28-6.6t-1.12-11.68q0-9.31 1.12-11.68c.75-1.57 2.84-3.78 6.28-6.6s6-4.24 7.56-4.24 4.12 1.41 7.56 4.24 5.53 5 6.28 6.6 1.12 5.42 1.12 11.55zm-11.08-10a7.66 7.66 0 00-1.84-2.12 3.75 3.75 0 00-2.32-1c-.72 0-1.54.71-2.44 2.12a13.82 13.82 0 00-1.68 6.36h9.12q-.24-4.32-.84-5.4zM310.48 311.27h-10.56v-29.76a4.22 4.22 0 00-1.44-2.84 3.91 3.91 0 00-2.44-1.48q-1 0-3.24 1.92v32.16h-10.56v-27.6a16.53 16.53 0 00-1-6.32 10.25 10.25 0 00-3-3.92l8.8-6.16a16.76 16.76 0 013.92 4.56q5.19-4.63 7.2-4.64c.8 0 2.1.59 3.92 1.76a25.17 25.17 0 015 4.24q6.31-6 8.76-6c1.62 0 4.08 1.48 7.36 4.44s4.92 5.88 4.92 8.76v15.44a16.53 16.53 0 001 6.32 10.16 10.16 0 003 3.92l-8.8 6.16q-5.76-4.56-5.76-13v-17.72a4.22 4.22 0 00-1.44-2.84 3.9 3.9 0 00-2.36-1.48c-.62 0-1.75.67-3.4 2a7.34 7.34 0 01.16 1.2zM336.48 268.15H347v29.76a4.4 4.4 0 001.28 2.84 3.42 3.42 0 002.4 1.48q1.11 0 4.64-3.28v-30.8h10.56v43.12h-8.16l-1-4.72q-6 5.67-8.4 5.68t-7.16-4.44q-4.77-4.44-4.76-8.76zM401.28 298.31q0 2.47-6.16 8.2t-9.12 5.72q-3 0-7.44-3a19.7 19.7 0 01-6.6-7l8.24-5.68q4 5.6 5.84 5.6a6.43 6.43 0 003.36-1.36c1.33-.91 2-1.76 2-2.56 0-.21-.64-.68-1.92-1.4s-2.84-1.63-4.68-2.72a60.33 60.33 0 01-5.48-3.68 19.28 19.28 0 01-4.64-5 10.91 10.91 0 01-1.92-6q0-3 5.44-7.68t8.36-4.64c1.94 0 4.4 1 7.36 3a19.62 19.62 0 016.6 7l-8.24 5.68q-4-5.6-5.84-5.6a4.2 4.2 0 00-2.36 1.08c-.94.72-1.4 1.37-1.4 2s1 1.49 2.92 2.72 4.08 2.49 6.4 3.8a26.31 26.31 0 016.4 5.12 9.55 9.55 0 012.88 6.4zM207 171.13h-.36a64.81 64.81 0 01-23.87-5 74.94 74.94 0 01-21.45-13.5c-6.44-5.8-13.64-12.4-17.2-19.61a52 52 0 01-5.55-21.9V99.46c0-6.32 7.28-3 7.19-9.28a1 1 0 00-1-1H133.5a3.1 3.1 0 00-3 3.18v19.73c0 40.2 30.61 73.21 69.66 76.71a7.25 7.25 0 00-.16 1.76v6.92c-.88.62-17.88 12.56-32.33 12.56a.85.85 0 00-.85.85V219a.85.85 0 00.85.86h78.74a.85.85 0 00.85-.86v-8.15a.85.85 0 00-.85-.85c-15.71 0-32.29-12.58-32.29-12.58v-6.9a7.25 7.25 0 00-.16-1.76c39.05-3.5 69.66-36.51 69.66-76.71v-1-18.73a3.1 3.1 0 00-3-3.18h-11.34a1 1 0 00-1 1c-.09 6.31 7.19 3 7.19 9.28v11.67a52 52 0 01-5.55 21.9c-3.56 7.21-10.76 13.81-17.2 19.61a74.94 74.94 0 01-21.45 13.5 64.81 64.81 0 01-23.87 5h-.4m36.81 45.34h-73.63v-3h73.64zm-21.38-9.86h-31.16a92.31 92.31 0 009.79-5.75H213a82.21 82.21 0 009.44 5.78zm-17.79-9.16v-2.4h4.7v2.4zm2.36-8.32h2.2a5.15 5.15 0 01.15 1.48V193h-4.7v-2.42a5.15 5.15 0 01.15-1.48h2.2M137.07 81.5h18.3a1 1 0 001.06-1c0-3.63-3.29-4.48-6.13-5.75a.46.46 0 01-.22-.63l1.48-2.87L160 54.84a.44.44 0 01.4-.25h93.5a.43.43 0 01.4.25l8.28 16.41 1.77 3.51a.46.46 0 01-.23.63c-2.39 1-4.66 2.11-4.62 5.11a1 1 0 001.06 1h16.37a1.71 1.71 0 001.52-2.5l-27-53.49a.45.45 0 01.3-.65l4.2-1a.46.46 0 00.35-.45V12.76a.46.46 0 00-.46-.46h-97.73a.47.47 0 00-.46.46v10.65a.47.47 0 00.35.45l4.77 1.14a.46.46 0 01.29.67L135.56 79a1.71 1.71 0 001.51 2.5zm29.37-39.11l6.16-11.95 2.51-4.44a.46.46 0 01.4-.23h63.84a.44.44 0 01.41.25l1.74 3.44 6.5 12.93a.46.46 0 01-.4.67h-80.76a.46.46 0 01-.4-.67z"/></g></g></svg>