<svg id="Calque_1" data-name="Calque 1" xmlns="http://www.w3.org/2000/svg" viewBox="0 0 1098 225"><defs><style>.cls-1{fill:#0d7a5f}</style></defs><g id="logo"><path class="cls-1" d="M238 97.46q12.78-11.7 19.44-11.7t19.44 11.7q12.78 11.7 15.84 19.26 2 5.22 2 23.58v73.62h-24.88v-27H245v27h-24.84V140.3q0-18.36 2-23.58 3.04-7.56 15.84-19.26zm7 42.84v25h24.84v-25q0-14.76-1.44-18.09a24.86 24.86 0 00-4.95-7q-3.51-3.69-6-3.69t-6 3.69a24.86 24.86 0 00-4.95 7q-1.5 3.33-1.5 18.09zM378.92 213.92h-23.76V147q0-3.06-3.24-6.39t-5.49-3.33q-2.25 0-7.29 4.32v72.36h-23.76v-62.1q0-9.18-2.16-14.22a22.87 22.87 0 00-6.84-8.82l19.8-13.86a37.68 37.68 0 018.82 10.22q11.7-10.44 16.2-10.44 2.7 0 8.82 4a56 56 0 0111.16 9.54q14.22-13.5 19.71-13.5t16.56 10q11.07 10 11.07 19.71v34.74q0 9.18 2.16 14.22a22.87 22.87 0 006.84 8.82l-19.8 13.86q-13-10.26-13-29.16V147q0-3.06-3.24-6.39t-5.31-3.33q-2.07 0-7.65 4.5a15.16 15.16 0 01.36 2.7zM504 116.9v73.8q1.08 6.3 8.46 11.16l-16.2 13.86a31.92 31.92 0 01-5.76-5.76 52.79 52.79 0 01-5.76-8.46q-14.94 14.58-20.88 14.58-4.32 0-13.95-9.54t-12-15.48q-2.34-5.94-2.34-25.65t2.43-25.65q2.34-5.94 12-15.48t13.95-9.54q6.3 0 20.34 13l2.16-10.8zm-25 27.45a14.72 14.72 0 00-5.13-4.68q-3.87-2.43-5.85-2.43t-4.23 2.34a13 13 0 00-3 4.32q-2.34 3.24-2.34 21.51t2.34 21.51a14.85 14.85 0 003 4.23q2.25 2.43 4.23 2.43t5.85-2.43q3.87-2.43 5-4.41t1.35-21.06q.04-19.08-1.22-21.33zM584.84 184.76q0 5.58-13.86 18.45t-20.61 12.87q-6.75 0-16.74-6.66a44.26 44.26 0 01-14.85-15.66L537.32 181q9 12.6 13.14 12.6c2 0 4.55-1 7.56-3.06s4.5-4 4.5-5.76q0-.72-4.32-3.15t-10.53-6.12a137 137 0 01-12.33-8.28A43.35 43.35 0 01524.9 156a24.58 24.58 0 01-4.32-13.5q0-6.84 12.24-17.28t18.81-10.44q6.55 0 16.56 6.66A44.26 44.26 0 01583 137.06l-18.5 12.78q-9-12.6-13.14-12.6c-1.44 0-3.22.81-5.31 2.43s-3.15 3.09-3.15 4.41 2.18 3.36 6.57 6.12 9.18 5.61 14.4 8.55a59.25 59.25 0 0114.4 11.52q6.56 7.11 6.57 14.49zM665.66 95.12q11.88-9.36 18-9.36t19 11.79q12.86 11.79 15.93 19.17 2 4.68 2 23.58v21.24q0 18.9-2 23.58-3.24 7-15.66 17.91t-19.63 10.89H646v-77q0-14.58-2.07-20.52t-8.73-14L659 85.76c2.52 1.92 4.73 5.04 6.66 9.36zm17.64 16.38q-5.24 0-13 3.42a89.18 89.18 0 01.54 11.52v65.7h12.46c1.67 0 3.69-1.23 6-3.69a25.06 25.06 0 004.95-7q1.43-3.33 1.44-18.09v-23q0-14.76-1.44-18.09a25.06 25.06 0 00-4.95-7c-2.3-2.54-4.3-3.77-6-3.77zM802.27 165.14v6.48h-43.56q0 10.8 2.71 17.1a13.38 13.38 0 003.23 4.41 7 7 0 004.86 2.25q2.52 0 6.3-4.32a31.65 31.65 0 005.94-10.44l18.54 13.14a44.26 44.26 0 01-14.85 15.66q-10 6.66-16.11 6.66t-17.73-9.54Q740 197 737.47 191.69T735 165.41q0-21 2.51-26.28t14.13-14.85q11.61-9.54 17-9.54t17 9.54q11.6 9.54 14.12 14.85t2.51 26.01zm-24.93-22.59a17.58 17.58 0 00-4.13-4.77 8.43 8.43 0 00-5.23-2.34q-2.43 0-5.48 4.77t-3.79 14.31h20.52q-.52-9.52-1.89-11.97zM884.71 213.92H861V147q0-3.06-3.24-6.39t-5.49-3.33q-2.25 0-7.29 4.32v72.36h-23.81v-62.1q0-9.18-2.16-14.22a22.87 22.87 0 00-6.84-8.82l19.83-13.9a37.68 37.68 0 018.82 10.26q11.7-10.44 16.2-10.44 2.7 0 8.82 4a56 56 0 0111.16 9.5q14.22-13.5 19.71-13.5t16.56 10q11.07 10 11.07 19.71v34.74q0 9.18 2.16 14.22a22.87 22.87 0 006.84 8.82l-19.8 13.86q-13-10.26-13-29.16V147q0-3.06-3.24-6.39t-5.3-3.37q-2.07 0-7.65 4.5a15.16 15.16 0 01.36 2.7zM943.21 116.9H967v67q0 3.06 2.88 6.39t5.4 3.33q2.52 0 10.44-7.38V116.9h23.76v97h-18.39l-2.16-10.62q-13.5 12.78-18.9 12.78t-16.11-10q-10.71-10-10.71-19.71zM1089 184.76q0 5.58-13.86 18.45t-20.61 12.87q-6.75 0-16.74-6.66a44.26 44.26 0 01-14.79-15.66l18.49-12.76q9 12.6 13.14 12.6 3.06 0 7.56-3.06t4.5-5.76q0-.72-4.32-3.15t-10.53-6.12a138.4 138.4 0 01-12.33-8.28 43.52 43.52 0 01-10.44-11.23 24.58 24.58 0 01-4.32-13.5q0-6.84 12.24-17.28t18.81-10.44q6.57 0 16.56 6.66a44.26 44.26 0 0114.85 15.66l-18.54 12.78q-9-12.6-13.14-12.6-2.16 0-5.31 2.43t-3.15 4.41q0 2 6.57 6.12t14.4 8.55a59.07 59.07 0 0114.4 11.52q6.56 7.07 6.56 14.45z"/><g id="logo-2" data-name="logo"><path class="cls-1" d="M85.61 165.51h-.37a65 65 0 01-23.82-5A74.79 74.79 0 0140 147.06c-6.42-5.79-13.6-12.38-17.16-19.57a52.13 52.13 0 01-5.54-21.86V94c0-6.3 7.27-3 7.18-9.25a1 1 0 00-1-1H12.27a3.1 3.1 0 00-3 3.18v19.7c0 40.12 30.55 73.06 69.51 76.56a7.8 7.8 0 00-.15 1.75v6.91c-.88.62-17.85 12.53-32.27 12.53a.85.85 0 00-.85.85v8.14a.85.85 0 00.85.85h78.59a.85.85 0 00.84-.85v-8.14a.85.85 0 00-.84-.85c-15.67 0-32.22-12.56-32.22-12.56v-6.88a7.15 7.15 0 00-.16-1.75c39-3.5 69.52-36.44 69.52-76.56v-1-18.7a3.1 3.1 0 00-3-3.18h-11.2a1 1 0 00-1 1c-.09 6.29 7.18 3 7.18 9.25v11.65a52.13 52.13 0 01-5.54 21.86c-3.56 7.19-10.74 13.78-17.17 19.57a74.6 74.6 0 01-21.4 13.47 65 65 0 01-23.82 5h-.37m36.74 45.25H48.87v-3h73.49zM101 200.92H69.92a94.3 94.3 0 009.76-5.74h11.9a82.16 82.16 0 009.42 5.74zm-17.76-9.15v-2.39H88v2.39zm2.34-8.33h2.2a5.15 5.15 0 01.15 1.48v2.41h-4.66v-2.41a5.15 5.15 0 01.15-1.48h2.19M15.83 76.06h18.26a1 1 0 001.06-1c.05-3.62-3.28-4.47-6.12-5.74a.45.45 0 01-.22-.62l1.48-2.87 8.44-16.38a.46.46 0 01.4-.25h93.29a.44.44 0 01.4.26l8.26 16.37 1.77 3.51a.47.47 0 01-.23.63c-2.39 1-4.65 2.1-4.61 5.09a1 1 0 001.05 1h16.34a1.71 1.71 0 001.52-2.48L130 20.2a.46.46 0 01.3-.65l4.2-1a.47.47 0 00.35-.45V7.46a.47.47 0 00-.46-.46H36.82a.46.46 0 00-.45.46v10.63a.46.46 0 00.34.45l4.76 1.15a.46.46 0 01.29.67L14.32 73.57a1.7 1.7 0 001.51 2.49zM45.14 37l6.14-11.92 2.51-4.45a.46.46 0 01.4-.23h63.71a.47.47 0 01.41.25l1.69 3.46L126.56 37a.47.47 0 01-.41.67H45.54a.46.46 0 01-.4-.67z"/></g></g></svg>